  0
SECTION
  2
HEADER
  9
$ACADVER
  1
AC1032
  9
$ACADMAINTVER
 90
      155
  9
$DWGCODEPAGE
  3
ANSI_1252
  9
$REQUIREDVERSIONS
160
                 0
  9
$INSBASE
 10
0.0
 20
0.0
 30
0.0
  9
$EXTMIN
 10
1.000000000000000E+20
 20
1.000000000000000E+20
 30
1.000000000000000E+20
  9
$EXTMAX
 10
-1.000000000000000E+20
 20
-1.000000000000000E+20
 30
-1.000000000000000E+20
  9
$LIMMIN
 10
0.0
 20
0.0
  9
$LIMMAX
 10
12.0
 20
9.0
  9
$ORTHOMODE
 70
     0
  9
$REGENMODE
 70
     1
  9
$FILLMODE
 70
     1
  9
$QTEXTMODE
 70
     0
  9
$MIRRTEXT
 70
     0
  9
$LTSCALE
 40
1.0
  9
$ATTMODE
 70
     1
  9
$TEXTSIZE
 40
0.2
  9
$TRACEWID
 40
0.05
  9
$TEXTSTYLE
  7
Standard
  9
$CLAYER
  8
0
  9
$CELTYPE
  6
ByLayer
  9
$CECOLOR
 62
   256
  9
$CELTSCALE
 40
1.0
  9
$DISPSILH
 70
     0
  9
$DIMSCALE
 40
1.0
  9
$DIMASZ
 40
0.18
  9
$DIMEXO
 40
0.0625
  9
$DIMDLI
 40
0.38
  9
$DIMRND
 40
0.0
  9
$DIMDLE
 40
0.0
  9
$DIMEXE
 40
0.18
  9
$DIMTP
 40
0.0
  9
$DIMTM
 40
0.0
  9
$DIMTXT
 40
0.18
  9
$DIMCEN
 40
0.09
  9
$DIMTSZ
 40
0.0
  9
$DIMTOL
 70
     0
  9
$DIMLIM
 70
     0
  9
$DIMTIH
 70
     1
  9
$DIMTOH
 70
     1
  9
$DIMSE1
 70
     0
  9
$DIMSE2
 70
     0
  9
$DIMTAD
 70
     0
  9
$DIMZIN
 70
     0
  9
$DIMBLK
  1

  9
$DIMASO
 70
     1
  9
$DIMSHO
 70
     1
  9
$DIMPOST
  1

  9
$DIMAPOST
  1

  9
$DIMALT
 70
     0
  9
$DIMALTD
 70
     2
  9
$DIMALTF
 40
25.4
  9
$DIMLFAC
 40
1.0
  9
$DIMTOFL
 70
     0
  9
$DIMTVP
 40
0.0
  9
$DIMTIX
 70
     0
  9
$DIMSOXD
 70
     0
  9
$DIMSAH
 70
     0
  9
$DIMBLK1
  1

  9
$DIMBLK2
  1

  9
$DIMSTYLE
  2
Standard
  9
$DIMCLRD
 70
     0
  9
$DIMCLRE
 70
     0
  9
$DIMCLRT
 70
     0
  9
$DIMTFAC
 40
1.0
  9
$DIMGAP
 40
0.09
  9
$DIMJUST
 70
     0
  9
$DIMSD1
 70
     0
  9
$DIMSD2
 70
     0
  9
$DIMTOLJ
 70
     1
  9
$DIMTZIN
 70
     0
  9
$DIMALTZ
 70
     0
  9
$DIMALTTZ
 70
     0
  9
$DIMUPT
 70
     0
  9
$DIMDEC
 70
     4
  9
$DIMTDEC
 70
     4
  9
$DIMALTU
 70
     2
  9
$DIMALTTD
 70
     2
  9
$DIMTXSTY
  7
Standard
  9
$DIMAUNIT
 70
     0
  9
$DIMADEC
 70
     0
  9
$DIMALTRND
 40
0.0
  9
$DIMAZIN
 70
     0
  9
$DIMDSEP
 70
    46
  9
$DIMATFIT
 70
     3
  9
$DIMFRAC
 70
     0
  9
$DIMLDRBLK
  1

  9
$DIMLUNIT
 70
     2
  9
$DIMLWD
 70
    -2
  9
$DIMLWE
 70
    -2
  9
$DIMTMOVE
 70
     0
  9
$DIMFXL
 40
1.0
  9
$DIMFXLON
 70
     0
  9
$DIMJOGANG
 40
0.7853981633974483
  9
$DIMTFILL
 70
     0
  9
$DIMTFILLCLR
 70
     0
  9
$DIMARCSYM
 70
     0
  9
$DIMLTYPE
  6

  9
$DIMLTEX1
  6

  9
$DIMLTEX2
  6

  9
$DIMTXTDIRECTION
 70
     0
  9
$LUNITS
 70
     2
  9
$LUPREC
 70
     4
  9
$SKETCHINC
 40
0.1
  9
$FILLETRAD
 40
0.0
  9
$AUNITS
 70
     0
  9
$AUPREC
 70
     0
  9
$MENU
  1
.
  9
$ELEVATION
 40
0.0
  9
$PELEVATION
 40
0.0
  9
$THICKNESS
 40
0.0
  9
$LIMCHECK
 70
     0
  9
$CHAMFERA
 40
0.0
  9
$CHAMFERB
 40
0.0
  9
$CHAMFERC
 40
0.0
  9
$CHAMFERD
 40
0.0
  9
$SKPOLY
 70
     0
  9
$TDCREATE
 40
2459513.620972222
  9
$TDUCREATE
 40
2459513.537638889
  9
$TDUPDATE
 40
2459513.620972222
  9
$TDUUPDATE
 40
2459513.537638889
  9
$TDINDWG
 40
0.0000000000
  9
$TDUSRTIMER
 40
0.0000000000
  9
$USRTIMER
 70
     1
  9
$ANGBASE
 50
0.0
  9
$ANGDIR
 70
     0
  9
$PDMODE
 70
     0
  9
$PDSIZE
 40
0.0
  9
$PLINEWID
 40
0.0
  9
$SPLFRAME
 70
     0
  9
$SPLINETYPE
 70
     6
  9
$SPLINESEGS
 70
     8
  9
$HANDSEED
  5
9F
  9
$SURFTAB1
 70
     6
  9
$SURFTAB2
 70
     6
  9
$SURFTYPE
 70
     6
  9
$SURFU
 70
     6
  9
$SURFV
 70
     6
  9
$UCSBASE
  2

  9
$UCSNAME
  2

  9
$UCSORG
 10
0.0
 20
0.0
 30
0.0
  9
$UCSXDIR
 10
1.0
 20
0.0
 30
0.0
  9
$UCSYDIR
 10
0.0
 20
1.0
 30
0.0
  9
$UCSORTHOREF
  2

  9
$UCSORTHOVIEW
 70
     0
  9
$UCSORGTOP
 10
0.0
 20
0.0
 30
0.0
  9
$UCSORGBOTTOM
 10
0.0
 20
0.0
 30
0.0
  9
$UCSORGLEFT
 10
0.0
 20
0.0
 30
0.0
  9
$UCSORGRIGHT
 10
0.0
 20
0.0
 30
0.0
  9
$UCSORGFRONT
 10
0.0
 20
0.0
 30
0.0
  9
$UCSORGBACK
 10
0.0
 20
0.0
 30
0.0
  9
$PUCSBASE
  2

  9
$PUCSNAME
  2

  9
$PUCSORG
 10
0.0
 20
0.0
 30
0.0
  9
$PUCSXDIR
 10
1.0
 20
0.0
 30
0.0
  9
$PUCSYDIR
 10
0.0
 20
1.0
 30
0.0
  9
$PUCSORTHOREF
  2

  9
$PUCSORTHOVIEW
 70
     0
  9
$PUCSORGTOP
 10
0.0
 20
0.0
 30
0.0
  9
$PUCSORGBOTTOM
 10
0.0
 20
0.0
 30
0.0
  9
$PUCSORGLEFT
 10
0.0
 20
0.0
 30
0.0
  9
$PUCSORGRIGHT
 10
0.0
 20
0.0
 30
0.0
  9
$PUCSORGFRONT
 10
0.0
 20
0.0
 30
0.0
  9
$PUCSORGBACK
 10
0.0
 20
0.0
 30
0.0
  9
$USERI1
 70
     0
  9
$USERI2
 70
     0
  9
$USERI3
 70
     0
  9
$USERI4
 70
     0
  9
$USERI5
 70
     0
  9
$USERR1
 40
0.0
  9
$USERR2
 40
0.0
  9
$USERR3
 40
0.0
  9
$USERR4
 40
0.0
  9
$USERR5
 40
0.0
  9
$WORLDVIEW
 70
     1
  9
$SHADEDGE
 70
     3
  9
$SHADEDIF
 70
    70
  9
$TILEMODE
 70
     1
  9
$MAXACTVP
 70
    64
  9
$PINSBASE
 10
0.0
 20
0.0
 30
0.0
  9
$PLIMCHECK
 70
     0
  9
$PEXTMIN
 10
1.000000000000000E+20
 20
1.000000000000000E+20
 30
1.000000000000000E+20
  9
$PEXTMAX
 10
-1.000000000000000E+20
 20
-1.000000000000000E+20
 30
-1.000000000000000E+20
  9
$PLIMMIN
 10
0.0
 20
0.0
  9
$PLIMMAX
 10
12.0
 20
9.0
  9
$UNITMODE
 70
     0
  9
$VISRETAIN
 70
     1
  9
$PLINEGEN
 70
     0
  9
$PSLTSCALE
 70
     1
  9
$TREEDEPTH
 70
  3020
  9
$CMLSTYLE
  2
Standard
  9
$CMLJUST
 70
     0
  9
$CMLSCALE
 40
1.0
  9
$PROXYGRAPHICS
 70
     1
  9
$MEASUREMENT
 70
     0
  9
$CELWEIGHT
370
    -1
  9
$ENDCAPS
280
     0
  9
$JOINSTYLE
280
     0
  9
$LWDISPLAY
290
     1
  9
$INSUNITS
 70
     4
  9
$HYPERLINKBASE
  1

  9
$STYLESHEET
  1

  9
$XEDIT
290
     1
  9
$CEPSNTYPE
380
     0
  9
$PSTYLEMODE
290
     1
  9
$FINGERPRINTGUID
  2
{427114A8-C920-C940-AAD4-DCE1E0CCFBC3}
  9
$VERSIONGUID
  2
{7324DAB4-C3D5-E34D-8712-96A0ACB14A38}
  9
$EXTNAMES
290
     1
  9
$PSVPSCALE
 40
0.0
  9
$OLESTARTUP
290
     0
  9
$SORTENTS
280
   127
  9
$INDEXCTL
280
     0
  9
$HIDETEXT
280
     1
  9
$XCLIPFRAME
280
     2
  9
$HALOGAP
280
     0
  9
$OBSCOLOR
 70
   257
  9
$OBSLTYPE
280
     0
  9
$INTERSECTIONDISPLAY
280
     0
  9
$INTERSECTIONCOLOR
 70
   257
  9
$DIMASSOC
280
     2
  9
$PROJECTNAME
  1

  9
$CAMERADISPLAY
290
     0
  9
$LENSLENGTH
 40
50.0
  9
$CAMERAHEIGHT
 40
0.0
  9
$STEPSPERSEC
 40
2.0
  9
$STEPSIZE
 40
6.0
  9
$3DDWFPREC
 40
2.0
  9
$PSOLWIDTH
 40
0.25
  9
$PSOLHEIGHT
 40
4.0
  9
$LOFTANG1
 40
1.570796326794896
  9
$LOFTANG2
 40
1.570796326794896
  9
$LOFTMAG1
 40
0.0
  9
$LOFTMAG2
 40
0.0
  9
$LOFTPARAM
 70
     7
  9
$LOFTNORMALS
280
     1
  9
$LATITUDE
 40
37.795
  9
$LONGITUDE
 40
-122.394
  9
$NORTHDIRECTION
 40
0.0
  9
$TIMEZONE
 70
 -8000
  9
$LIGHTGLYPHDISPLAY
280
     1
  9
$TILEMODELIGHTSYNCH
280
     1
  9
$CMATERIAL
347
11
  9
$SOLIDHIST
280
     0
  9
$SHOWHIST
280
     1
  9
$DWFFRAME
280
     2
  9
$DGNFRAME
280
     0
  9
$REALWORLDSCALE
290
     1
  9
$INTERFERECOLOR
 62
     1
  9
$INTERFEREOBJVS
345
33
  9
$INTERFEREVPVS
346
30
  9
$CSHADOW
280
     0
  9
$SHADOWPLANELOCATION
 40
0.0
  0
ENDSEC
  0
SECTION
  2
CLASSES
  0
CLASS
  1
ACDBDICTIONARYWDFLT
  2
AcDbDictionaryWithDefault
  3
ObjectDBX Classes
 90
        0
 91
        1
280
     0
281
     0
  0
CLASS
  1
MATERIAL
  2
AcDbMaterial
  3
ObjectDBX Classes
 90
     1153
 91
        3
280
     0
281
     0
  0
CLASS
  1
VISUALSTYLE
  2
AcDbVisualStyle
  3
ObjectDBX Classes
 90
     4095
 91
       24
280
     0
281
     0
  0
CLASS
  1
SCALE
  2
AcDbScale
  3
ObjectDBX Classes
 90
     1153
 91
       17
280
     0
281
     0
  0
CLASS
  1
TABLESTYLE
  2
AcDbTableStyle
  3
ObjectDBX Classes
 90
     4095
 91
        1
280
     0
281
     0
  0
CLASS
  1
MLEADERSTYLE
  2
AcDbMLeaderStyle
  3
ACDB_MLEADERSTYLE_CLASS
 90
     4095
 91
        1
280
     0
281
     0
  0
CLASS
  1
ACDBSECTIONVIEWSTYLE
  2
AcDbSectionViewStyle
  3
ObjectDBX Classes
 90
     1025
 91
        1
280
     0
281
     0
  0
CLASS
  1
ACDBDETAILVIEWSTYLE
  2
AcDbDetailViewStyle
  3
ObjectDBX Classes
 90
     1025
 91
        1
280
     0
281
     0
  0
CLASS
  1
DICTIONARYVAR
  2
AcDbDictionaryVar
  3
ObjectDBX Classes
 90
        0
 91
        5
280
     0
281
     0
  0
CLASS
  1
CELLSTYLEMAP
  2
AcDbCellStyleMap
  3
ObjectDBX Classes
 90
     1152
 91
        1
280
     0
281
     0
  0
ENDSEC
  0
SECTION
  2
TABLES
  0
TABLE
  2
VPORT
  5
8
330
0
100
AcDbSymbolTable
 70
     1
  0
VPORT
  5
57
330
8
100
AcDbSymbolTableRecord
100
AcDbViewportTableRecord
  2
*Active
 70
     0
 10
0.0
 20
0.0
 11
1.0
 21
1.0
 12
0.0
 22
0.0
 13
0.0
 23
0.0
 14
1.0
 24
1.0
 15
0.0
 25
0.0
 16
0.0
 26
0.0
 36
1.0
 17
72.78513520858307
 27
-118.8648052202283
 37
0.0
 40
8.138579997965543
 41
3.48564983080575
 42
50.0
 43
0.0
 44
0.0
 50
0.0
 51
0.0
 71
     0
 72
   100
 73
     1
 74
     0
 75
     1
 76
     0
 77
     0
 78
     0
281
     0
 65
     1
110
0.0
120
0.0
130
0.0
111
1.0
121
0.0
131
0.0
112
0.0
122
1.0
132
0.0
 79
     0
146
0.0
 60
     3
 61
     5
292
     1
282
     1
141
0.0
142
0.0
 63
   250
421
  3355443
  0
ENDTAB
  0
TABLE
  2
LTYPE
  5
5
330
0
100
AcDbSymbolTable
 70
     1
  0
LTYPE
  5
5B
330
5
100
AcDbSymbolTableRecord
100
AcDbLinetypeTableRecord
  2
ByBlock
 70
     0
  3

 72
    65
 73
     0
 40
0.0
  0
LTYPE
  5
5C
330
5
100
AcDbSymbolTableRecord
100
AcDbLinetypeTableRecord
  2
ByLayer
 70
     0
  3

 72
    65
 73
     0
 40
0.0
  0
LTYPE
  5
5D
330
5
100
AcDbSymbolTableRecord
100
AcDbLinetypeTableRecord
  2
Continuous
 70
     0
  3
Solid line
 72
    65
 73
     0
 40
0.0
  0
ENDTAB
  0
TABLE
  2
LAYER
  5
2
330
0
100
AcDbSymbolTable
 70
     2
  0
LAYER
  5
54
330
2
100
AcDbSymbolTableRecord
100
AcDbLayerTableRecord
  2
0
 70
     0
 62
     7
  6
Continuous
370
    -3
390
F
347
21
348
0
  0
LAYER
  5
78
330
2
100
AcDbSymbolTableRecord
100
AcDbLayerTableRecord
  2
Calque 1
 70
     0
 62
     7
  6
Continuous
370
     0
390
F
347
21
348
0
  0
ENDTAB
  0
TABLE
  2
STYLE
  5
3
330
0
100
AcDbSymbolTable
 70
     2
  0
STYLE
  5
55
330
3
100
AcDbSymbolTableRecord
100
AcDbTextStyleTableRecord
  2
Standard
 70
     0
 40
0.0
 41
1.0
 50
0.0
 71
     0
 42
0.2
  3
txt
  4

  0
STYLE
  5
5A
330
3
100
AcDbSymbolTableRecord
100
AcDbTextStyleTableRecord
  2
Annotative
 70
     0
 40
0.0
 41
1.0
 50
0.0
 71
     0
 42
0.2
  3
txt
  4

1001
AcadAnnotative
1000
AnnotativeData
1002
{
1070
     1
1070
     1
1002
}
  0
ENDTAB
  0
TABLE
  2
VIEW
  5
6
330
0
100
AcDbSymbolTable
 70
     0
  0
ENDTAB
  0
TABLE
  2
UCS
  5
7
330
0
100
AcDbSymbolTable
 70
     0
  0
ENDTAB
  0
TABLE
  2
APPID
  5
9
330
0
100
AcDbSymbolTable
 70
     2
  0
APPID
  5
56
330
9
100
AcDbSymbolTableRecord
100
AcDbRegAppTableRecord
  2
ACAD
 70
     0
  0
APPID
  5
5E
330
9
100
AcDbSymbolTableRecord
100
AcDbRegAppTableRecord
  2
AcadAnnotative
 70
     0
  0
ENDTAB
  0
TABLE
  2
DIMSTYLE
  5
A
330
0
100
AcDbSymbolTable
 70
     2
100
AcDbDimStyleTable
 71
     0
  0
DIMSTYLE
105
58
330
A
100
AcDbSymbolTableRecord
100
AcDbDimStyleTableRecord
  2
Standard
 70
     0
340
55
  0
DIMSTYLE
105
59
330
A
100
AcDbSymbolTableRecord
100
AcDbDimStyleTableRecord
  2
Annotative
 70
     0
340
55
1001
AcadAnnotative
1000
AnnotativeData
1002
{
1070
     1
1070
     1
1002
}
  0
ENDTAB
  0
TABLE
  2
BLOCK_RECORD
  5
1
330
0
100
AcDbSymbolTable
 70
     2
  0
BLOCK_RECORD
  5
70
330
1
100
AcDbSymbolTableRecord
100
AcDbBlockTableRecord
  2
*Model_Space
340
73
 70
     0
280
     1
281
     0
  0
BLOCK_RECORD
  5
6C
330
1
100
AcDbSymbolTableRecord
100
AcDbBlockTableRecord
  2
*Paper_Space
340
6F
 70
     0
280
     1
281
     0
  0
BLOCK_RECORD
  5
74
330
1
100
AcDbSymbolTableRecord
100
AcDbBlockTableRecord
  2
*Paper_Space0
340
77
 70
     0
280
     1
281
     0
  0
BLOCK_RECORD
  5
79
330
1
100
AcDbSymbolTableRecord
100
AcDbBlockTableRecord
  2
Block_0
340
0
102
{BLKREFS
331
7A
102
}
 70
     0
280
     1
281
     0
  0
ENDTAB
  0
ENDSEC
  0
SECTION
  2
BLOCKS
  0
BLOCK
  5
71
330
70
100
AcDbEntity
  8
0
100
AcDbBlockBegin
  2
*Model_Space
 70
     0
 10
0.0
 20
0.0
 30
0.0
  3
*Model_Space
  1

  0
ENDBLK
  5
72
330
70
100
AcDbEntity
  8
0
100
AcDbBlockEnd
  0
BLOCK
  5
6D
330
6C
100
AcDbEntity
 67
     1
  8
0
100
AcDbBlockBegin
  2
*Paper_Space
 70
     0
 10
0.0
 20
0.0
 30
0.0
  3
*Paper_Space
  1

  0
ENDBLK
  5
6E
330
6C
100
AcDbEntity
 67
     1
  8
0
100
AcDbBlockEnd
  0
BLOCK
  5
75
330
74
100
AcDbEntity
 67
     1
  8
0
100
AcDbBlockBegin
  2
*Paper_Space0
 70
     0
 10
0.0
 20
0.0
 30
0.0
  3
*Paper_Space0
  1

  0
ENDBLK
  5
76
330
74
100
AcDbEntity
 67
     1
  8
0
100
AcDbBlockEnd
  0
BLOCK
  5
7B
330
79
100
AcDbEntity
  8
0
100
AcDbBlockBegin
  2
Block_0
 70
     0
 10
0.0
 20
0.0
 30
0.0
  3
Block_0
  1

  0
SPLINE
  5
7D
330
79
100
AcDbEntity
  8
Calque 1
100
AcDbSpline
210
0.0
220
0.0
230
1.0
 70
     9
 71
     3
 72
    53
 73
    49
 74
     0
 42
0.0000000001
 43
0.0000000001
 40
0.0
 40
0.0
 40
0.0
 40
0.0
 40
1.0
 40
1.0
 40
1.0
 40
2.0
 40
2.0
 40
2.0
 40
3.0
 40
3.0
 40
3.0
 40
4.0
 40
4.0
 40
4.0
 40
5.0
 40
5.0
 40
5.0
 40
6.0
 40
6.0
 40
6.0
 40
7.0
 40
7.0
 40
7.0
 40
8.0
 40
8.0
 40
8.0
 40
9.0
 40
9.0
 40
9.0
 40
10.0
 40
10.0
 40
10.0
 40
11.0
 40
11.0
 40
11.0
 40
12.0
 40
12.0
 40
12.0
 40
13.0
 40
13.0
 40
13.0
 40
14.0
 40
14.0
 40
14.0
 40
15.0
 40
15.0
 40
15.0
 40
16.0
 40
16.0
 40
16.0
 40
16.0
 10
63.32102727366628
 20
-118.1666566201424
 30
0.0
 10
63.16031356927936
 20
-117.9677023558692
 30
0.0
 10
62.89796954807759
 20
-117.8197355047778
 30
0.0
 10
62.57636988452952
 20
-117.8197355047778
 30
0.0
 10
62.24219562246029
 20
-117.8197355047778
 30
0.0
 10
62.04754772754367
 20
-117.9847555785212
 30
0.0
 10
62.04754772754367
 20
-118.2047249252544
 30
0.0
 10
62.04754772754367
 20
-118.4162537880488
 30
0.0
 10
62.18707409469629
 20
-118.4966967676293
 30
0.0
 10
62.51298012760092
 20
-118.5685270084968
 30
0.0
 10
62.51298012760092
 20
-118.5685270084968
 30
0.0
 10
62.85990124296558
 20
-118.6446636187208
 30
0.0
 10
62.85990124296558
 20
-118.6446636187208
 30
0.0
 10
63.39716388389029
 20
-118.76748127277
 30
0.0
 10
63.78645967372353
 20
-118.9409418304523
 30
0.0
 10
63.78645967372353
 20
-119.4656298728559
 30
0.0
 10
63.78645967372353
 20
-119.998586144424
 30
0.0
 10
63.35065509483943
 20
-120.3541199985018
 30
0.0
 10
62.63131915751926
 20
-120.3541199985018
 30
0.0
 10
62.0051730530751
 20
-120.3541199985018
 30
0.0
 10
61.57780895812986
 20
-120.0450949334749
 30
0.0
 10
61.37902694863093
 20
-119.7660421991697
 30
0.0
 10
61.37902694863093
 20
-119.7660421991697
 30
0.0
 10
61.80208467421962
 20
-119.4613235034993
 30
0.0
 10
61.80208467421962
 20
-119.4613235034993
 30
0.0
 10
61.93317055743338
 20
-119.6771587356502
 30
0.0
 10
62.25063610639915
 20
-119.90143445174
 30
0.0
 10
62.65681286411011
 20
-119.90143445174
 30
0.0
 10
63.04180228458677
 20
-119.90143445174
 30
0.0
 10
63.24058429408569
 20
-119.7405484925788
 30
0.0
 10
63.24058429408569
 20
-119.5121386619067
 30
0.0
 10
63.24058429408569
 20
-119.287862945817
 30
0.0
 10
63.04180228458677
 20
-119.2032858516541
 30
0.0
 10
62.74983044221185
 20
-119.1397238399512
 30
0.0
 10
62.74983044221185
 20
-119.1397238399512
 30
0.0
 10
62.36484102173518
 20
-119.0551467457884
 30
0.0
 10
62.36484102173518
 20
-119.0551467457884
 30
0.0
 10
61.89510225232137
 20
-118.9536886837478
 30
0.0
 10
61.50167234790583
 20
-118.7547344194746
 30
0.0
 10
61.50167234790583
 20
-118.230046377071
 30
0.0
 10
61.50167234790583
 20
-117.7181051879629
 30
0.0
 10
61.97985160125851
 20
-117.3754904419548
 30
0.0
 10
62.58911673782495
 20
-117.3754904419548
 30
0.0
 10
63.18563502109595
 20
-117.3754904419548
 30
0.0
 10
63.53686250581717
 20
-117.6674622843297
 30
0.0
 10
63.70601669414295
 20
-117.8534974405332
 30
0.0
 10
63.70601669414295
 20
-117.8534974405332
 30
0.0
 10
63.32102727366628
 20
-118.1666566201424
 30
0.0
 10
63.32102727366628
 20
-118.1666566201424
 30
0.0
  0
HATCH
  5
7E
330
79
100
AcDbEntity
  8
Calque 1
 62
   250
420
  1907995
440
 33554687
100
AcDbHatch
 10
0.0
 20
0.0
 30
0.0
210
0.0
220
0.0
230
1.0
  2
SOLID
 70
     1
 71
     1
 91
        1
 92
        1
 93
        1
 72
     4
 94
        3
 73
     0
 74
     0
 95
       53
 96
       49
 40
0.0
 40
0.0
 40
0.0
 40
0.0
 40
1.0
 40
1.0
 40
1.0
 40
2.0
 40
2.0
 40
2.0
 40
3.0
 40
3.0
 40
3.0
 40
4.0
 40
4.0
 40
4.0
 40
5.0
 40
5.0
 40
5.0
 40
6.0
 40
6.0
 40
6.0
 40
7.0
 40
7.0
 40
7.0
 40
8.0
 40
8.0
 40
8.0
 40
9.0
 40
9.0
 40
9.0
 40
10.0
 40
10.0
 40
10.0
 40
11.0
 40
11.0
 40
11.0
 40
12.0
 40
12.0
 40
12.0
 40
13.0
 40
13.0
 40
13.0
 40
14.0
 40
14.0
 40
14.0
 40
15.0
 40
15.0
 40
15.0
 40
16.0
 40
16.0
 40
16.0
 40
16.0
 10
63.32102727366628
 20
-118.1666566201424
 10
63.16031356927936
 20
-117.9677023558692
 10
62.89796954807759
 20
-117.8197355047778
 10
62.57636988452952
 20
-117.8197355047778
 10
62.24219562246029
 20
-117.8197355047778
 10
62.04754772754367
 20
-117.9847555785212
 10
62.04754772754367
 20
-118.2047249252544
 10
62.04754772754367
 20
-118.4162537880488
 10
62.18707409469629
 20
-118.4966967676293
 10
62.51298012760092
 20
-118.5685270084968
 10
62.51298012760092
 20
-118.5685270084968
 10
62.85990124296558
 20
-118.6446636187208
 10
62.85990124296558
 20
-118.6446636187208
 10
63.39716388389029
 20
-118.76748127277
 10
63.78645967372353
 20
-118.9409418304523
 10
63.78645967372353
 20
-119.4656298728559
 10
63.78645967372353
 20
-119.998586144424
 10
63.35065509483943
 20
-120.3541199985018
 10
62.63131915751926
 20
-120.3541199985018
 10
62.0051730530751
 20
-120.3541199985018
 10
61.57780895812986
 20
-120.0450949334749
 10
61.37902694863093
 20
-119.7660421991697
 10
61.37902694863093
 20
-119.7660421991697
 10
61.80208467421962
 20
-119.4613235034993
 10
61.80208467421962
 20
-119.4613235034993
 10
61.93317055743338
 20
-119.6771587356502
 10
62.25063610639915
 20
-119.90143445174
 10
62.65681286411011
 20
-119.90143445174
 10
63.04180228458677
 20
-119.90143445174
 10
63.24058429408569
 20
-119.7405484925788
 10
63.24058429408569
 20
-119.5121386619067
 10
63.24058429408569
 20
-119.287862945817
 10
63.04180228458677
 20
-119.2032858516541
 10
62.74983044221185
 20
-119.1397238399512
 10
62.74983044221185
 20
-119.1397238399512
 10
62.36484102173518
 20
-119.0551467457884
 10
62.36484102173518
 20
-119.0551467457884
 10
61.89510225232137
 20
-118.9536886837478
 10
61.50167234790583
 20
-118.7547344194746
 10
61.50167234790583
 20
-118.230046377071
 10
61.50167234790583
 20
-117.7181051879629
 10
61.97985160125851
 20
-117.3754904419548
 10
62.58911673782495
 20
-117.3754904419548
 10
63.18563502109595
 20
-117.3754904419548
 10
63.53686250581717
 20
-117.6674622843297
 10
63.70601669414295
 20
-117.8534974405332
 10
63.70601669414295
 20
-117.8534974405332
 10
63.32102727366628
 20
-118.1666566201424
 10
63.32102727366628
 20
-118.1666566201424
 97
        0
 97
        1
330
7D
 75
     2
 76
     1
 98
        1
 10
0.0
 20
0.0
450
        0
451
        0
460
0.0
461
0.0
452
        0
462
0.0
453
        0
470

  0
SPLINE
  5
7F
330
79
100
AcDbEntity
  8
Calque 1
100
AcDbSpline
210
0.0
220
0.0
230
1.0
 70
     9
 71
     3
 72
    71
 73
    67
 74
     0
 42
0.0000000001
 43
0.0000000001
 40
0.0
 40
0.0
 40
0.0
 40
0.0
 40
1.0
 40
1.0
 40
1.0
 40
2.0
 40
2.0
 40
2.0
 40
3.0
 40
3.0
 40
3.0
 40
4.0
 40
4.0
 40
4.0
 40
5.0
 40
5.0
 40
5.0
 40
6.0
 40
6.0
 40
6.0
 40
7.0
 40
7.0
 40
7.0
 40
8.0
 40
8.0
 40
8.0
 40
9.0
 40
9.0
 40
9.0
 40
10.0
 40
10.0
 40
10.0
 40
11.0
 40
11.0
 40
11.0
 40
12.0
 40
12.0
 40
12.0
 40
13.0
 40
13.0
 40
13.0
 40
14.0
 40
14.0
 40
14.0
 40
15.0
 40
15.0
 40
15.0
 40
16.0
 40
16.0
 40
16.0
 40
17.0
 40
17.0
 40
17.0
 40
18.0
 40
18.0
 40
18.0
 40
19.0
 40
19.0
 40
19.0
 40
20.0
 40
20.0
 40
20.0
 40
21.0
 40
21.0
 40
21.0
 40
22.0
 40
22.0
 40
22.0
 40
22.0
 10
65.56068384862719
 20
-119.533325999141
 30
0.0
 10
65.50573457563746
 20
-119.3386781042244
 30
0.0
 10
65.4421725639346
 20
-119.0678935990838
 30
0.0
 10
65.40841062817915
 20
-118.8604988508717
 30
0.0
 10
65.40841062817915
 20
-118.8604988508717
 30
0.0
 10
65.40410425882258
 20
-118.8604988508717
 30
0.0
 10
65.40410425882258
 20
-118.8604988508717
 30
0.0
 10
65.36190183912828
 20
-119.0594531151449
 30
0.0
 10
65.30264619678198
 20
-119.3302376202856
 30
0.0
 10
65.24339055443568
 20
-119.5417664830799
 30
0.0
 10
65.24339055443568
 20
-119.5417664830799
 30
0.0
 10
65.01911483834591
 20
-120.3031325853201
 30
0.0
 10
65.01911483834591
 20
-120.3031325853201
 30
0.0
 10
65.01911483834591
 20
-120.3031325853201
 30
0.0
 10
64.54110783976751
 20
-120.3031325853201
 30
0.0
 10
64.54110783976751
 20
-120.3031325853201
 30
0.0
 10
64.54110783976751
 20
-120.3031325853201
 30
0.0
 10
63.96147052437422
 20
-118.2893020194173
 30
0.0
 10
63.96147052437422
 20
-118.2893020194173
 30
0.0
 10
63.96147052437422
 20
-118.2893020194173
 30
0.0
 10
64.45222437624805
 20
-118.2893020194173
 30
0.0
 10
64.45222437624805
 20
-118.2893020194173
 30
0.0
 10
64.45222437624805
 20
-118.2893020194173
 30
0.0
 10
64.68907469085898
 20
-119.1777921450633
 30
0.0
 10
64.68907469085898
 20
-119.1777921450633
 30
0.0
 10
64.73988984926641
 20
-119.3767464093364
 30
0.0
 10
64.78639863831729
 20
-119.5374601137233
 30
0.0
 10
64.8244669434293
 20
-119.7446826071611
 30
0.0
 10
64.8244669434293
 20
-119.7446826071611
 30
0.0
 10
64.82877331278587
 20
-119.7446826071611
 30
0.0
 10
64.82877331278587
 20
-119.7446826071611
 30
0.0
 10
64.86684161789788
 20
-119.5459005976622
 30
0.0
 10
64.90060355365333
 20
-119.402067861153
 30
0.0
 10
64.96416556535618
 20
-119.1652175465421
 30
0.0
 10
64.96416556535618
 20
-119.1652175465421
 30
0.0
 10
65.19688176538481
 20
-118.2893020194173
 30
0.0
 10
65.19688176538481
 20
-118.2893020194173
 30
0.0
 10
65.19688176538481
 20
-118.2893020194173
 30
0.0
 10
65.62424586033005
 20
-118.2893020194173
 30
0.0
 10
65.62424586033005
 20
-118.2893020194173
 30
0.0
 10
65.62424586033005
 20
-118.2893020194173
 30
0.0
 10
65.85696206035868
 20
-119.1777921450633
 30
0.0
 10
65.85696206035868
 20
-119.1777921450633
 30
0.0
 10
65.92465818664384
 20
-119.4360020516827
 30
0.0
 10
65.95428600781699
 20
-119.5374601137233
 30
0.0
 10
65.992354312929
 20
-119.7446826071611
 30
0.0
 10
65.992354312929
 20
-119.7446826071611
 30
0.0
 10
65.99648842751129
 20
-119.7446826071611
 30
0.0
 10
65.99648842751129
 20
-119.7446826071611
 30
0.0
 10
66.03455673262331
 20
-119.5459005976622
 30
0.0
 10
66.06418455379645
 20
-119.4275615677439
 30
0.0
 10
66.13618704943817
 20
-119.1652175465421
 30
0.0
 10
66.13618704943817
 20
-119.1652175465421
 30
0.0
 10
66.37303736404911
 20
-118.2893020194173
 30
0.0
 10
66.37303736404911
 20
-118.2893020194173
 30
0.0
 10
66.37303736404911
 20
-118.2893020194173
 30
0.0
 10
66.85535073198408
 20
-118.2893020194173
 30
0.0
 10
66.85535073198408
 20
-118.2893020194173
 30
0.0
 10
66.85535073198408
 20
-118.2893020194173
 30
0.0
 10
66.24195148083535
 20
-120.3031325853201
 30
0.0
 10
66.24195148083535
 20
-120.3031325853201
 30
0.0
 10
66.24195148083535
 20
-120.3031325853201
 30
0.0
 10
65.77221271142153
 20
-120.3031325853201
 30
0.0
 10
65.77221271142153
 20
-120.3031325853201
 30
0.0
 10
65.77221271142153
 20
-120.3031325853201
 30
0.0
 10
65.56068384862719
 20
-119.533325999141
 30
0.0
 10
65.56068384862719
 20
-119.533325999141
 30
0.0
  0
HATCH
  5
80
330
79
100
AcDbEntity
  8
Calque 1
 62
   250
420
  1907995
440
 33554687
100
AcDbHatch
 10
0.0
 20
0.0
 30
0.0
210
0.0
220
0.0
230
1.0
  2
SOLID
 70
     1
 71
     1
 91
        1
 92
        1
 93
        1
 72
     4
 94
        3
 73
     0
 74
     0
 95
       71
 96
       67
 40
0.0
 40
0.0
 40
0.0
 40
0.0
 40
1.0
 40
1.0
 40
1.0
 40
2.0
 40
2.0
 40
2.0
 40
3.0
 40
3.0
 40
3.0
 40
4.0
 40
4.0
 40
4.0
 40
5.0
 40
5.0
 40
5.0
 40
6.0
 40
6.0
 40
6.0
 40
7.0
 40
7.0
 40
7.0
 40
8.0
 40
8.0
 40
8.0
 40
9.0
 40
9.0
 40
9.0
 40
10.0
 40
10.0
 40
10.0
 40
11.0
 40
11.0
 40
11.0
 40
12.0
 40
12.0
 40
12.0
 40
13.0
 40
13.0
 40
13.0
 40
14.0
 40
14.0
 40
14.0
 40
15.0
 40
15.0
 40
15.0
 40
16.0
 40
16.0
 40
16.0
 40
17.0
 40
17.0
 40
17.0
 40
18.0
 40
18.0
 40
18.0
 40
19.0
 40
19.0
 40
19.0
 40
20.0
 40
20.0
 40
20.0
 40
21.0
 40
21.0
 40
21.0
 40
22.0
 40
22.0
 40
22.0
 40
22.0
 10
65.56068384862719
 20
-119.533325999141
 10
65.50573457563746
 20
-119.3386781042244
 10
65.4421725639346
 20
-119.0678935990838
 10
65.40841062817915
 20
-118.8604988508717
 10
65.40841062817915
 20
-118.8604988508717
 10
65.40410425882258
 20
-118.8604988508717
 10
65.40410425882258
 20
-118.8604988508717
 10
65.36190183912828
 20
-119.0594531151449
 10
65.30264619678198
 20
-119.3302376202856
 10
65.24339055443568
 20
-119.5417664830799
 10
65.24339055443568
 20
-119.5417664830799
 10
65.01911483834591
 20
-120.3031325853201
 10
65.01911483834591
 20
-120.3031325853201
 10
65.01911483834591
 20
-120.3031325853201
 10
64.54110783976751
 20
-120.3031325853201
 10
64.54110783976751
 20
-120.3031325853201
 10
64.54110783976751
 20
-120.3031325853201
 10
63.96147052437422
 20
-118.2893020194173
 10
63.96147052437422
 20
-118.2893020194173
 10
63.96147052437422
 20
-118.2893020194173
 10
64.45222437624805
 20
-118.2893020194173
 10
64.45222437624805
 20
-118.2893020194173
 10
64.45222437624805
 20
-118.2893020194173
 10
64.68907469085898
 20
-119.1777921450633
 10
64.68907469085898
 20
-119.1777921450633
 10
64.73988984926641
 20
-119.3767464093364
 10
64.78639863831729
 20
-119.5374601137233
 10
64.8244669434293
 20
-119.7446826071611
 10
64.8244669434293
 20
-119.7446826071611
 10
64.82877331278587
 20
-119.7446826071611
 10
64.82877331278587
 20
-119.7446826071611
 10
64.86684161789788
 20
-119.5459005976622
 10
64.90060355365333
 20
-119.402067861153
 10
64.96416556535618
 20
-119.1652175465421
 10
64.96416556535618
 20
-119.1652175465421
 10
65.19688176538481
 20
-118.2893020194173
 10
65.19688176538481
 20
-118.2893020194173
 10
65.19688176538481
 20
-118.2893020194173
 10
65.62424586033005
 20
-118.2893020194173
 10
65.62424586033005
 20
-118.2893020194173
 10
65.62424586033005
 20
-118.2893020194173
 10
65.85696206035868
 20
-119.1777921450633
 10
65.85696206035868
 20
-119.1777921450633
 10
65.92465818664384
 20
-119.4360020516827
 10
65.95428600781699
 20
-119.5374601137233
 10
65.992354312929
 20
-119.7446826071611
 10
65.992354312929
 20
-119.7446826071611
 10
65.99648842751129
 20
-119.7446826071611
 10
65.99648842751129
 20
-119.7446826071611
 10
66.03455673262331
 20
-119.5459005976622
 10
66.06418455379645
 20
-119.4275615677439
 10
66.13618704943817
 20
-119.1652175465421
 10
66.13618704943817
 20
-119.1652175465421
 10
66.37303736404911
 20
-118.2893020194173
 10
66.37303736404911
 20
-118.2893020194173
 10
66.37303736404911
 20
-118.2893020194173
 10
66.85535073198408
 20
-118.2893020194173
 10
66.85535073198408
 20
-118.2893020194173
 10
66.85535073198408
 20
-118.2893020194173
 10
66.24195148083535
 20
-120.3031325853201
 10
66.24195148083535
 20
-120.3031325853201
 10
66.24195148083535
 20
-120.3031325853201
 10
65.77221271142153
 20
-120.3031325853201
 10
65.77221271142153
 20
-120.3031325853201
 10
65.77221271142153
 20
-120.3031325853201
 10
65.56068384862719
 20
-119.533325999141
 10
65.56068384862719
 20
-119.533325999141
 97
        0
 97
        1
330
7F
 75
     2
 76
     1
 98
        1
 10
0.0
 20
0.0
450
        0
451
        0
460
0.0
461
0.0
452
        0
462
0.0
453
        0
470

  0
SPLINE
  5
81
330
79
100
AcDbEntity
  8
Calque 1
100
AcDbSpline
210
0.0
220
0.0
230
1.0
 70
    11
 71
     3
 72
    17
 73
    13
 74
     0
 42
0.0000000001
 43
0.0000000001
 40
0.0
 40
0.0
 40
0.0
 40
0.0
 40
1.0
 40
1.0
 40
1.0
 40
2.0
 40
2.0
 40
2.0
 40
3.0
 40
3.0
 40
3.0
 40
4.0
 40
4.0
 40
4.0
 40
4.0
 10
67.66098631120975
 20
-120.3031325853201
 30
0.0
 10
67.66098631120975
 20
-120.3031325853201
 30
0.0
 10
67.17850068850052
 20
-120.3031325853201
 30
0.0
 10
67.17850068850052
 20
-120.3031325853201
 30
0.0
 10
67.17850068850052
 20
-120.3031325853201
 30
0.0
 10
67.17850068850052
 20
-118.2893020194173
 30
0.0
 10
67.17850068850052
 20
-118.2893020194173
 30
0.0
 10
67.17850068850052
 20
-118.2893020194173
 30
0.0
 10
67.66098631120975
 20
-118.2893020194173
 30
0.0
 10
67.66098631120975
 20
-118.2893020194173
 30
0.0
 10
67.66098631120975
 20
-118.2893020194173
 30
0.0
 10
67.66098631120975
 20
-120.3031325853201
 30
0.0
 10
67.66098631120975
 20
-120.3031325853201
 30
0.0
  0
SPLINE
  5
82
330
79
100
AcDbEntity
  8
Calque 1
100
AcDbSpline
210
0.0
220
0.0
230
1.0
 70
    11
 71
     3
 72
    17
 73
    13
 74
     0
 42
0.0000000001
 43
0.0000000001
 40
0.0
 40
0.0
 40
0.0
 40
0.0
 40
1.0
 40
1.0
 40
1.0
 40
2.0
 40
2.0
 40
2.0
 40
3.0
 40
3.0
 40
3.0
 40
4.0
 40
4.0
 40
4.0
 40
4.0
 10
67.66098631120975
 20
-117.9170594522361
 30
0.0
 10
67.66098631120975
 20
-117.9170594522361
 30
0.0
 10
67.17850068850052
 20
-117.9170594522361
 30
0.0
 10
67.17850068850052
 20
-117.9170594522361
 30
0.0
 10
67.17850068850052
 20
-117.9170594522361
 30
0.0
 10
67.17850068850052
 20
-117.426133345588
 30
0.0
 10
67.17850068850052
 20
-117.426133345588
 30
0.0
 10
67.17850068850052
 20
-117.426133345588
 30
0.0
 10
67.66098631120975
 20
-117.426133345588
 30
0.0
 10
67.66098631120975
 20
-117.426133345588
 30
0.0
 10
67.66098631120975
 20
-117.426133345588
 30
0.0
 10
67.66098631120975
 20
-117.9170594522361
 30
0.0
 10
67.66098631120975
 20
-117.9170594522361
 30
0.0
  0
HATCH
  5
83
330
79
100
AcDbEntity
  8
Calque 1
 62
   250
420
  1907995
440
 33554687
100
AcDbHatch
 10
0.0
 20
0.0
 30
0.0
210
0.0
220
0.0
230
1.0
  2
SOLID
 70
     1
 71
     1
 91
        2
 92
        1
 93
        1
 72
     4
 94
        3
 73
     0
 74
     0
 95
       17
 96
       13
 40
0.0
 40
0.0
 40
0.0
 40
0.0
 40
1.0
 40
1.0
 40
1.0
 40
2.0
 40
2.0
 40
2.0
 40
3.0
 40
3.0
 40
3.0
 40
4.0
 40
4.0
 40
4.0
 40
4.0
 10
67.66098631120975
 20
-120.3031325853201
 10
67.66098631120975
 20
-120.3031325853201
 10
67.17850068850052
 20
-120.3031325853201
 10
67.17850068850052
 20
-120.3031325853201
 10
67.17850068850052
 20
-120.3031325853201
 10
67.17850068850052
 20
-118.2893020194173
 10
67.17850068850052
 20
-118.2893020194173
 10
67.17850068850052
 20
-118.2893020194173
 10
67.66098631120975
 20
-118.2893020194173
 10
67.66098631120975
 20
-118.2893020194173
 10
67.66098631120975
 20
-118.2893020194173
 10
67.66098631120975
 20
-120.3031325853201
 10
67.66098631120975
 20
-120.3031325853201
 97
        0
 97
        1
330
81
 92
        1
 93
        1
 72
     4
 94
        3
 73
     0
 74
     0
 95
       17
 96
       13
 40
0.0
 40
0.0
 40
0.0
 40
0.0
 40
1.0
 40
1.0
 40
1.0
 40
2.0
 40
2.0
 40
2.0
 40
3.0
 40
3.0
 40
3.0
 40
4.0
 40
4.0
 40
4.0
 40
4.0
 10
67.66098631120975
 20
-117.9170594522361
 10
67.66098631120975
 20
-117.9170594522361
 10
67.17850068850052
 20
-117.9170594522361
 10
67.17850068850052
 20
-117.9170594522361
 10
67.17850068850052
 20
-117.9170594522361
 10
67.17850068850052
 20
-117.426133345588
 10
67.17850068850052
 20
-117.426133345588
 10
67.17850068850052
 20
-117.426133345588
 10
67.66098631120975
 20
-117.426133345588
 10
67.66098631120975
 20
-117.426133345588
 10
67.66098631120975
 20
-117.426133345588
 10
67.66098631120975
 20
-117.9170594522361
 10
67.66098631120975
 20
-117.9170594522361
 97
        0
 97
        1
330
82
 75
     2
 76
     1
 98
        1
 10
0.0
 20
0.0
450
        0
451
        0
460
0.0
461
0.0
452
        0
462
0.0
453
        0
470

  0
SPLINE
  5
84
330
79
100
AcDbEntity
  8
Calque 1
100
AcDbSpline
210
0.0
220
0.0
230
1.0
 70
     9
 71
     3
 72
    53
 73
    49
 74
     0
 42
0.0000000001
 43
0.0000000001
 40
0.0
 40
0.0
 40
0.0
 40
0.0
 40
1.0
 40
1.0
 40
1.0
 40
2.0
 40
2.0
 40
2.0
 40
3.0
 40
3.0
 40
3.0
 40
4.0
 40
4.0
 40
4.0
 40
5.0
 40
5.0
 40
5.0
 40
6.0
 40
6.0
 40
6.0
 40
7.0
 40
7.0
 40
7.0
 40
8.0
 40
8.0
 40
8.0
 40
9.0
 40
9.0
 40
9.0
 40
10.0
 40
10.0
 40
10.0
 40
11.0
 40
11.0
 40
11.0
 40
12.0
 40
12.0
 40
12.0
 40
13.0
 40
13.0
 40
13.0
 40
14.0
 40
14.0
 40
14.0
 40
15.0
 40
15.0
 40
15.0
 40
16.0
 40
16.0
 40
16.0
 40
16.0
 10
69.48929848523184
 20
-118.8604988508717
 30
0.0
 10
69.34959986330496
 20
-118.7251065983014
 30
0.0
 10
69.15495196838834
 20
-118.6320890201997
 30
0.0
 10
68.92223576835973
 20
-118.6320890201997
 30
0.0
 10
68.73189424279967
 20
-118.6320890201997
 30
0.0
 10
68.59219562087279
 20
-118.6997851464848
 30
0.0
 10
68.59219562087279
 20
-118.8308710296986
 30
0.0
 10
68.59219562087279
 20
-118.9747037662078
 30
0.0
 10
68.73189424279967
 20
-119.0043315873809
 30
0.0
 10
69.01542560123573
 20
-119.0635872297272
 30
0.0
 10
69.01542560123573
 20
-119.0635872297272
 30
0.0
 10
69.25658228520322
 20
-119.1187087574912
 30
0.0
 10
69.25658228520322
 20
-119.1187087574912
 30
0.0
 10
69.5611287260993
 20
-119.1905389983587
 30
0.0
 10
69.8362196005965
 20
-119.3047439136947
 30
0.0
 10
69.8362196005965
 20
-119.6726801115194
 30
0.0
 10
69.8362196005965
 20
-120.1339783969944
 30
0.0
 10
69.41729598959013
 20
-120.3541199985018
 30
0.0
 10
68.95616995888943
 20
-120.3541199985018
 30
0.0
 10
68.47385659095445
 20
-120.3541199985018
 30
0.0
 10
68.14795055804982
 20
-120.1170974291166
 30
0.0
 10
68.02530515877492
 20
-119.94346461666
 30
0.0
 10
68.02530515877492
 20
-119.94346461666
 30
0.0
 10
68.35103893690529
 20
-119.6557991436417
 30
0.0
 10
68.35103893690529
 20
-119.6557991436417
 30
0.0
 10
68.46524385224133
 20
-119.8080723640897
 30
0.0
 10
68.65989174715794
 20
-119.9562114699554
 30
0.0
 10
68.96874455741059
 20
-119.9562114699554
 30
0.0
 10
69.20990124137808
 20
-119.9562114699554
 30
0.0
 10
69.34959986330496
 20
-119.8718066305668
 30
0.0
 10
69.34959986330496
 20
-119.7278016392834
 30
0.0
 10
69.34959986330496
 20
-119.5882752721308
 30
0.0
 10
69.23539494796893
 20
-119.5629538203142
 30
0.0
 10
69.04074705305231
 20
-119.5205791458456
 30
0.0
 10
69.04074705305231
 20
-119.5205791458456
 30
0.0
 10
68.74033472673852
 20
-119.4570171341428
 30
0.0
 10
68.74033472673852
 20
-119.4570171341428
 30
0.0
 10
68.3891072420173
 20
-119.3808805239187
 30
0.0
 10
68.11418862229437
 20
-119.2329136728272
 30
0.0
 10
68.11418862229437
 20
-118.8648052202283
 30
0.0
 10
68.11418862229437
 20
-118.4246942719876
 30
0.0
 10
68.54155271723961
 20
-118.2384868610099
 30
0.0
 10
68.92654213771628
 20
-118.2384868610099
 30
0.0
 10
69.32841252607068
 20
-118.2384868610099
 30
0.0
 10
69.63726533632332
 20
-118.4162537880488
 30
0.0
 10
69.76852347431135
 20
-118.560086524558
 30
0.0
 10
69.76852347431135
 20
-118.560086524558
 30
0.0
 10
69.48929848523184
 20
-118.8604988508717
 30
0.0
 10
69.48929848523184
 20
-118.8604988508717
 30
0.0
  0
HATCH
  5
85
330
79
100
AcDbEntity
  8
Calque 1
 62
   250
420
  1907995
440
 33554687
100
AcDbHatch
 10
0.0
 20
0.0
 30
0.0
210
0.0
220
0.0
230
1.0
  2
SOLID
 70
     1
 71
     1
 91
        1
 92
        1
 93
        1
 72
     4
 94
        3
 73
     0
 74
     0
 95
       53
 96
       49
 40
0.0
 40
0.0
 40
0.0
 40
0.0
 40
1.0
 40
1.0
 40
1.0
 40
2.0
 40
2.0
 40
2.0
 40
3.0
 40
3.0
 40
3.0
 40
4.0
 40
4.0
 40
4.0
 40
5.0
 40
5.0
 40
5.0
 40
6.0
 40
6.0
 40
6.0
 40
7.0
 40
7.0
 40
7.0
 40
8.0
 40
8.0
 40
8.0
 40
9.0
 40
9.0
 40
9.0
 40
10.0
 40
10.0
 40
10.0
 40
11.0
 40
11.0
 40
11.0
 40
12.0
 40
12.0
 40
12.0
 40
13.0
 40
13.0
 40
13.0
 40
14.0
 40
14.0
 40
14.0
 40
15.0
 40
15.0
 40
15.0
 40
16.0
 40
16.0
 40
16.0
 40
16.0
 10
69.48929848523184
 20
-118.8604988508717
 10
69.34959986330496
 20
-118.7251065983014
 10
69.15495196838834
 20
-118.6320890201997
 10
68.92223576835973
 20
-118.6320890201997
 10
68.73189424279967
 20
-118.6320890201997
 10
68.59219562087279
 20
-118.6997851464848
 10
68.59219562087279
 20
-118.8308710296986
 10
68.59219562087279
 20
-118.9747037662078
 10
68.73189424279967
 20
-119.0043315873809
 10
69.01542560123573
 20
-119.0635872297272
 10
69.01542560123573
 20
-119.0635872297272
 10
69.25658228520322
 20
-119.1187087574912
 10
69.25658228520322
 20
-119.1187087574912
 10
69.5611287260993
 20
-119.1905389983587
 10
69.8362196005965
 20
-119.3047439136947
 10
69.8362196005965
 20
-119.6726801115194
 10
69.8362196005965
 20
-120.1339783969944
 10
69.41729598959013
 20
-120.3541199985018
 10
68.95616995888943
 20
-120.3541199985018
 10
68.47385659095445
 20
-120.3541199985018
 10
68.14795055804982
 20
-120.1170974291166
 10
68.02530515877492
 20
-119.94346461666
 10
68.02530515877492
 20
-119.94346461666
 10
68.35103893690529
 20
-119.6557991436417
 10
68.35103893690529
 20
-119.6557991436417
 10
68.46524385224133
 20
-119.8080723640897
 10
68.65989174715794
 20
-119.9562114699554
 10
68.96874455741059
 20
-119.9562114699554
 10
69.20990124137808
 20
-119.9562114699554
 10
69.34959986330496
 20
-119.8718066305668
 10
69.34959986330496
 20
-119.7278016392834
 10
69.34959986330496
 20
-119.5882752721308
 10
69.23539494796893
 20
-119.5629538203142
 10
69.04074705305231
 20
-119.5205791458456
 10
69.04074705305231
 20
-119.5205791458456
 10
68.74033472673852
 20
-119.4570171341428
 10
68.74033472673852
 20
-119.4570171341428
 10
68.3891072420173
 20
-119.3808805239187
 10
68.11418862229437
 20
-119.2329136728272
 10
68.11418862229437
 20
-118.8648052202283
 10
68.11418862229437
 20
-118.4246942719876
 10
68.54155271723961
 20
-118.2384868610099
 10
68.92654213771628
 20
-118.2384868610099
 10
69.32841252607068
 20
-118.2384868610099
 10
69.63726533632332
 20
-118.4162537880488
 10
69.76852347431135
 20
-118.560086524558
 10
69.76852347431135
 20
-118.560086524558
 10
69.48929848523184
 20
-118.8604988508717
 10
69.48929848523184
 20
-118.8604988508717
 97
        0
 97
        1
330
84
 75
     2
 76
     1
 98
        1
 10
0.0
 20
0.0
450
        0
451
        0
460
0.0
461
0.0
452
        0
462
0.0
453
        0
470

  0
SPLINE
  5
86
330
79
100
AcDbEntity
  8
Calque 1
100
AcDbSpline
210
0.0
220
0.0
230
1.0
 70
     9
 71
     3
 72
    53
 73
    49
 74
     0
 42
0.0000000001
 43
0.0000000001
 40
0.0
 40
0.0
 40
0.0
 40
0.0
 40
1.0
 40
1.0
 40
1.0
 40
2.0
 40
2.0
 40
2.0
 40
3.0
 40
3.0
 40
3.0
 40
4.0
 40
4.0
 40
4.0
 40
5.0
 40
5.0
 40
5.0
 40
6.0
 40
6.0
 40
6.0
 40
7.0
 40
7.0
 40
7.0
 40
8.0
 40
8.0
 40
8.0
 40
9.0
 40
9.0
 40
9.0
 40
10.0
 40
10.0
 40
10.0
 40
11.0
 40
11.0
 40
11.0
 40
12.0
 40
12.0
 40
12.0
 40
13.0
 40
13.0
 40
13.0
 40
14.0
 40
14.0
 40
14.0
 40
15.0
 40
15.0
 40
15.0
 40
16.0
 40
16.0
 40
16.0
 40
16.0
 10
71.5253499170145
 20
-118.8604988508717
 30
0.0
 10
71.38565129508761
 20
-118.7251065983014
 30
0.0
 10
71.191003400171
 20
-118.6320890201997
 30
0.0
 10
70.95828720014238
 20
-118.6320890201997
 30
0.0
 10
70.76794567458232
 20
-118.6320890201997
 30
0.0
 10
70.62824705265544
 20
-118.6997851464848
 30
0.0
 10
70.62824705265544
 20
-118.8308710296986
 30
0.0
 10
70.62824705265544
 20
-118.9747037662078
 30
0.0
 10
70.76794567458232
 20
-119.0043315873809
 30
0.0
 10
71.05147703301838
 20
-119.0635872297272
 30
0.0
 10
71.05147703301838
 20
-119.0635872297272
 30
0.0
 10
71.29263371698588
 20
-119.1187087574912
 30
0.0
 10
71.29263371698588
 20
-119.1187087574912
 30
0.0
 10
71.59718015788197
 20
-119.1905389983587
 30
0.0
 10
71.87227103237916
 20
-119.3047439136947
 30
0.0
 10
71.87227103237916
 20
-119.6726801115194
 30
0.0
 10
71.87227103237916
 20
-120.1339783969944
 30
0.0
 10
71.45334742137278
 20
-120.3541199985018
 30
0.0
 10
70.99222139067208
 20
-120.3541199985018
 30
0.0
 10
70.50990802273711
 20
-120.3541199985018
 30
0.0
 10
70.18400198983248
 20
-120.1170974291166
 30
0.0
 10
70.06135659055757
 20
-119.94346461666
 30
0.0
 10
70.06135659055757
 20
-119.94346461666
 30
0.0
 10
70.38709036868795
 20
-119.6557991436417
 30
0.0
 10
70.38709036868795
 20
-119.6557991436417
 30
0.0
 10
70.50129528402398
 20
-119.8080723640897
 30
0.0
 10
70.69594317894059
 20
-119.9562114699554
 30
0.0
 10
71.00479598919325
 20
-119.9562114699554
 30
0.0
 10
71.24595267316074
 20
-119.9562114699554
 30
0.0
 10
71.38565129508761
 20
-119.8718066305668
 30
0.0
 10
71.38565129508761
 20
-119.7278016392834
 30
0.0
 10
71.38565129508761
 20
-119.5882752721308
 30
0.0
 10
71.27144637975158
 20
-119.5629538203142
 30
0.0
 10
71.07679848483496
 20
-119.5205791458456
 30
0.0
 10
71.07679848483496
 20
-119.5205791458456
 30
0.0
 10
70.77638615852119
 20
-119.4570171341428
 30
0.0
 10
70.77638615852119
 20
-119.4570171341428
 30
0.0
 10
70.42515867379997
 20
-119.3808805239187
 30
0.0
 10
70.15024005407703
 20
-119.2329136728272
 30
0.0
 10
70.15024005407703
 20
-118.8648052202283
 30
0.0
 10
70.15024005407703
 20
-118.4246942719876
 30
0.0
 10
70.57760414902226
 20
-118.2384868610099
 30
0.0
 10
70.96259356949893
 20
-118.2384868610099
 30
0.0
 10
71.36446395785333
 20
-118.2384868610099
 30
0.0
 10
71.67331676810597
 20
-118.4162537880488
 30
0.0
 10
71.804574906094
 20
-118.560086524558
 30
0.0
 10
71.804574906094
 20
-118.560086524558
 30
0.0
 10
71.5253499170145
 20
-118.8604988508717
 30
0.0
 10
71.5253499170145
 20
-118.8604988508717
 30
0.0
  0
HATCH
  5
87
330
79
100
AcDbEntity
  8
Calque 1
 62
   250
420
  1907995
440
 33554687
100
AcDbHatch
 10
0.0
 20
0.0
 30
0.0
210
0.0
220
0.0
230
1.0
  2
SOLID
 70
     1
 71
     1
 91
        1
 92
        1
 93
        1
 72
     4
 94
        3
 73
     0
 74
     0
 95
       53
 96
       49
 40
0.0
 40
0.0
 40
0.0
 40
0.0
 40
1.0
 40
1.0
 40
1.0
 40
2.0
 40
2.0
 40
2.0
 40
3.0
 40
3.0
 40
3.0
 40
4.0
 40
4.0
 40
4.0
 40
5.0
 40
5.0
 40
5.0
 40
6.0
 40
6.0
 40
6.0
 40
7.0
 40
7.0
 40
7.0
 40
8.0
 40
8.0
 40
8.0
 40
9.0
 40
9.0
 40
9.0
 40
10.0
 40
10.0
 40
10.0
 40
11.0
 40
11.0
 40
11.0
 40
12.0
 40
12.0
 40
12.0
 40
13.0
 40
13.0
 40
13.0
 40
14.0
 40
14.0
 40
14.0
 40
15.0
 40
15.0
 40
15.0
 40
16.0
 40
16.0
 40
16.0
 40
16.0
 10
71.5253499170145
 20
-118.8604988508717
 10
71.38565129508761
 20
-118.7251065983014
 10
71.191003400171
 20
-118.6320890201997
 10
70.95828720014238
 20
-118.6320890201997
 10
70.76794567458232
 20
-118.6320890201997
 10
70.62824705265544
 20
-118.6997851464848
 10
70.62824705265544
 20
-118.8308710296986
 10
70.62824705265544
 20
-118.9747037662078
 10
70.76794567458232
 20
-119.0043315873809
 10
71.05147703301838
 20
-119.0635872297272
 10
71.05147703301838
 20
-119.0635872297272
 10
71.29263371698588
 20
-119.1187087574912
 10
71.29263371698588
 20
-119.1187087574912
 10
71.59718015788197
 20
-119.1905389983587
 10
71.87227103237916
 20
-119.3047439136947
 10
71.87227103237916
 20
-119.6726801115194
 10
71.87227103237916
 20
-120.1339783969944
 10
71.45334742137278
 20
-120.3541199985018
 10
70.99222139067208
 20
-120.3541199985018
 10
70.50990802273711
 20
-120.3541199985018
 10
70.18400198983248
 20
-120.1170974291166
 10
70.06135659055757
 20
-119.94346461666
 10
70.06135659055757
 20
-119.94346461666
 10
70.38709036868795
 20
-119.6557991436417
 10
70.38709036868795
 20
-119.6557991436417
 10
70.50129528402398
 20
-119.8080723640897
 10
70.69594317894059
 20
-119.9562114699554
 10
71.00479598919325
 20
-119.9562114699554
 10
71.24595267316074
 20
-119.9562114699554
 10
71.38565129508761
 20
-119.8718066305668
 10
71.38565129508761
 20
-119.7278016392834
 10
71.38565129508761
 20
-119.5882752721308
 10
71.27144637975158
 20
-119.5629538203142
 10
71.07679848483496
 20
-119.5205791458456
 10
71.07679848483496
 20
-119.5205791458456
 10
70.77638615852119
 20
-119.4570171341428
 10
70.77638615852119
 20
-119.4570171341428
 10
70.42515867379997
 20
-119.3808805239187
 10
70.15024005407703
 20
-119.2329136728272
 10
70.15024005407703
 20
-118.8648052202283
 10
70.15024005407703
 20
-118.4246942719876
 10
70.57760414902226
 20
-118.2384868610099
 10
70.96259356949893
 20
-118.2384868610099
 10
71.36446395785333
 20
-118.2384868610099
 10
71.67331676810597
 20
-118.4162537880488
 10
71.804574906094
 20
-118.560086524558
 10
71.804574906094
 20
-118.560086524558
 10
71.5253499170145
 20
-118.8604988508717
 10
71.5253499170145
 20
-118.8604988508717
 97
        0
 97
        1
330
86
 75
     2
 76
     1
 98
        1
 10
0.0
 20
0.0
450
        0
451
        0
460
0.0
461
0.0
452
        0
462
0.0
453
        0
470

  0
SPLINE
  5
88
330
79
100
AcDbEntity
  8
Calque 1
100
AcDbSpline
210
0.0
220
0.0
230
1.0
 70
    11
 71
     3
 72
    71
 73
    67
 74
     0
 42
0.0000000001
 43
0.0000000001
 40
0.0
 40
0.0
 40
0.0
 40
0.0
 40
1.0
 40
1.0
 40
1.0
 40
2.0
 40
2.0
 40
2.0
 40
3.0
 40
3.0
 40
3.0
 40
4.0
 40
4.0
 40
4.0
 40
5.0
 40
5.0
 40
5.0
 40
6.0
 40
6.0
 40
6.0
 40
7.0
 40
7.0
 40
7.0
 40
8.0
 40
8.0
 40
8.0
 40
9.0
 40
9.0
 40
9.0
 40
10.0
 40
10.0
 40
10.0
 40
11.0
 40
11.0
 40
11.0
 40
12.0
 40
12.0
 40
12.0
 40
13.0
 40
13.0
 40
13.0
 40
14.0
 40
14.0
 40
14.0
 40
15.0
 40
15.0
 40
15.0
 40
16.0
 40
16.0
 40
16.0
 40
17.0
 40
17.0
 40
17.0
 40
18.0
 40
18.0
 40
18.0
 40
19.0
 40
19.0
 40
19.0
 40
20.0
 40
20.0
 40
20.0
 40
21.0
 40
21.0
 40
21.0
 40
22.0
 40
22.0
 40
22.0
 40
22.0
 10
73.40499401376681
 20
-120.3031325853201
 30
0.0
 10
73.40499401376681
 20
-120.3031325853201
 30
0.0
 10
72.90149330859755
 20
-118.5559524099756
 30
0.0
 10
72.90149330859755
 20
-118.5559524099756
 30
0.0
 10
72.81691621443467
 20
-118.2596741982442
 30
0.0
 10
72.77023517060952
 20
-118.0524517048064
 30
0.0
 10
72.77023517060952
 20
-118.0524517048064
 30
0.0
 10
72.77023517060952
 20
-118.0524517048064
 30
0.0
 10
72.76179468667066
 20
-118.0524517048064
 30
0.0
 10
72.76179468667066
 20
-118.0524517048064
 30
0.0
 10
72.77023517060952
 20
-118.1878439573767
 30
0.0
 10
72.78728839326152
 20
-118.5475119260368
 30
0.0
 10
72.78728839326152
 20
-119.0847745669615
 30
0.0
 10
72.78728839326152
 20
-119.0847745669615
 30
0.0
 10
72.78728839326152
 20
-120.3031325853201
 30
0.0
 10
72.78728839326152
 20
-120.3031325853201
 30
0.0
 10
72.78728839326152
 20
-120.3031325853201
 30
0.0
 10
72.29222817203112
 20
-120.3031325853201
 30
0.0
 10
72.29222817203112
 20
-120.3031325853201
 30
0.0
 10
72.29222817203112
 20
-120.3031325853201
 30
0.0
 10
72.29222817203112
 20
-117.426133345588
 30
0.0
 10
72.29222817203112
 20
-117.426133345588
 30
0.0
 10
72.29222817203112
 20
-117.426133345588
 30
0.0
 10
73.04946015968903
 20
-117.426133345588
 30
0.0
 10
73.04946015968903
 20
-117.426133345588
 30
0.0
 10
73.04946015968903
 20
-117.426133345588
 30
0.0
 10
73.50645207580742
 20
-119.0170784406763
 30
0.0
 10
73.50645207580742
 20
-119.0170784406763
 30
0.0
 10
73.58258868603144
 20
-119.287862945817
 30
0.0
 10
73.64184432837774
 20
-119.4909513246725
 30
0.0
 10
73.66303166561202
 20
-119.6179030933039
 30
0.0
 10
73.66303166561202
 20
-119.6179030933039
 30
0.0
 10
73.67147214955088
 20
-119.6179030933039
 30
0.0
 10
73.67147214955088
 20
-119.6179030933039
 30
0.0
 10
73.69679360136747
 20
-119.5036981779679
 30
0.0
 10
73.76879609700918
 20
-119.2541010100615
 30
0.0
 10
73.83218585393779
 20
-119.0127720713198
 30
0.0
 10
73.83218585393779
 20
-119.0127720713198
 30
0.0
 10
74.26385631823959
 20
-117.426133345588
 30
0.0
 10
74.26385631823959
 20
-117.426133345588
 30
0.0
 10
74.26385631823959
 20
-117.426133345588
 30
0.0
 10
75.03383515919293
 20
-117.426133345588
 30
0.0
 10
75.03383515919293
 20
-117.426133345588
 30
0.0
 10
75.03383515919293
 20
-117.426133345588
 30
0.0
 10
75.03383515919293
 20
-120.3031325853201
 30
0.0
 10
75.03383515919293
 20
-120.3031325853201
 30
0.0
 10
75.03383515919293
 20
-120.3031325853201
 30
0.0
 10
74.53877493796253
 20
-120.3031325853201
 30
0.0
 10
74.53877493796253
 20
-120.3031325853201
 30
0.0
 10
74.53877493796253
 20
-120.3031325853201
 30
0.0
 10
74.53877493796253
 20
-119.0847745669615
 30
0.0
 10
74.53877493796253
 20
-119.0847745669615
 30
0.0
 10
74.53877493796253
 20
-118.6829041786071
 30
0.0
 10
74.55600041538878
 20
-118.2259122624887
 30
0.0
 10
74.5728813832665
 20
-117.9847555785212
 30
0.0
 10
74.5728813832665
 20
-117.9847555785212
 30
0.0
 10
74.56426864455337
 20
-117.9847555785212
 30
0.0
 10
74.56426864455337
 20
-117.9847555785212
 30
0.0
 10
74.53877493796253
 20
-118.1074009777961
 30
0.0
 10
74.48813203432935
 20
-118.2936083887739
 30
0.0
 10
74.41612953868764
 20
-118.5475119260368
 30
0.0
 10
74.41612953868764
 20
-118.5475119260368
 30
0.0
 10
73.91262883351837
 20
-120.3031325853201
 30
0.0
 10
73.91262883351837
 20
-120.3031325853201
 30
0.0
 10
73.91262883351837
 20
-120.3031325853201
 30
0.0
 10
73.40499401376681
 20
-120.3031325853201
 30
0.0
 10
73.40499401376681
 20
-120.3031325853201
 30
0.0
  0
HATCH
  5
89
330
79
100
AcDbEntity
  8
Calque 1
 62
   250
420
  1907995
440
 33554687
100
AcDbHatch
 10
0.0
 20
0.0
 30
0.0
210
0.0
220
0.0
230
1.0
  2
SOLID
 70
     1
 71
     1
 91
        1
 92
        1
 93
        1
 72
     4
 94
        3
 73
     0
 74
     0
 95
       71
 96
       67
 40
0.0
 40
0.0
 40
0.0
 40
0.0
 40
1.0
 40
1.0
 40
1.0
 40
2.0
 40
2.0
 40
2.0
 40
3.0
 40
3.0
 40
3.0
 40
4.0
 40
4.0
 40
4.0
 40
5.0
 40
5.0
 40
5.0
 40
6.0
 40
6.0
 40
6.0
 40
7.0
 40
7.0
 40
7.0
 40
8.0
 40
8.0
 40
8.0
 40
9.0
 40
9.0
 40
9.0
 40
10.0
 40
10.0
 40
10.0
 40
11.0
 40
11.0
 40
11.0
 40
12.0
 40
12.0
 40
12.0
 40
13.0
 40
13.0
 40
13.0
 40
14.0
 40
14.0
 40
14.0
 40
15.0
 40
15.0
 40
15.0
 40
16.0
 40
16.0
 40
16.0
 40
17.0
 40
17.0
 40
17.0
 40
18.0
 40
18.0
 40
18.0
 40
19.0
 40
19.0
 40
19.0
 40
20.0
 40
20.0
 40
20.0
 40
21.0
 40
21.0
 40
21.0
 40
22.0
 40
22.0
 40
22.0
 40
22.0
 10
73.40499401376681
 20
-120.3031325853201
 10
73.40499401376681
 20
-120.3031325853201
 10
72.90149330859755
 20
-118.5559524099756
 10
72.90149330859755
 20
-118.5559524099756
 10
72.81691621443467
 20
-118.2596741982442
 10
72.77023517060952
 20
-118.0524517048064
 10
72.77023517060952
 20
-118.0524517048064
 10
72.77023517060952
 20
-118.0524517048064
 10
72.76179468667066
 20
-118.0524517048064
 10
72.76179468667066
 20
-118.0524517048064
 10
72.77023517060952
 20
-118.1878439573767
 10
72.78728839326152
 20
-118.5475119260368
 10
72.78728839326152
 20
-119.0847745669615
 10
72.78728839326152
 20
-119.0847745669615
 10
72.78728839326152
 20
-120.3031325853201
 10
72.78728839326152
 20
-120.3031325853201
 10
72.78728839326152
 20
-120.3031325853201
 10
72.29222817203112
 20
-120.3031325853201
 10
72.29222817203112
 20
-120.3031325853201
 10
72.29222817203112
 20
-120.3031325853201
 10
72.29222817203112
 20
-117.426133345588
 10
72.29222817203112
 20
-117.426133345588
 10
72.29222817203112
 20
-117.426133345588
 10
73.04946015968903
 20
-117.426133345588
 10
73.04946015968903
 20
-117.426133345588
 10
73.04946015968903
 20
-117.426133345588
 10
73.50645207580742
 20
-119.0170784406763
 10
73.50645207580742
 20
-119.0170784406763
 10
73.58258868603144
 20
-119.287862945817
 10
73.64184432837774
 20
-119.4909513246725
 10
73.66303166561202
 20
-119.6179030933039
 10
73.66303166561202
 20
-119.6179030933039
 10
73.67147214955088
 20
-119.6179030933039
 10
73.67147214955088
 20
-119.6179030933039
 10
73.69679360136747
 20
-119.5036981779679
 10
73.76879609700918
 20
-119.2541010100615
 10
73.83218585393779
 20
-119.0127720713198
 10
73.83218585393779
 20
-119.0127720713198
 10
74.26385631823959
 20
-117.426133345588
 10
74.26385631823959
 20
-117.426133345588
 10
74.26385631823959
 20
-117.426133345588
 10
75.03383515919293
 20
-117.426133345588
 10
75.03383515919293
 20
-117.426133345588
 10
75.03383515919293
 20
-117.426133345588
 10
75.03383515919293
 20
-120.3031325853201
 10
75.03383515919293
 20
-120.3031325853201
 10
75.03383515919293
 20
-120.3031325853201
 10
74.53877493796253
 20
-120.3031325853201
 10
74.53877493796253
 20
-120.3031325853201
 10
74.53877493796253
 20
-120.3031325853201
 10
74.53877493796253
 20
-119.0847745669615
 10
74.53877493796253
 20
-119.0847745669615
 10
74.53877493796253
 20
-118.6829041786071
 10
74.55600041538878
 20
-118.2259122624887
 10
74.5728813832665
 20
-117.9847555785212
 10
74.5728813832665
 20
-117.9847555785212
 10
74.56426864455337
 20
-117.9847555785212
 10
74.56426864455337
 20
-117.9847555785212
 10
74.53877493796253
 20
-118.1074009777961
 10
74.48813203432935
 20
-118.2936083887739
 10
74.41612953868764
 20
-118.5475119260368
 10
74.41612953868764
 20
-118.5475119260368
 10
73.91262883351837
 20
-120.3031325853201
 10
73.91262883351837
 20
-120.3031325853201
 10
73.91262883351837
 20
-120.3031325853201
 10
73.40499401376681
 20
-120.3031325853201
 10
73.40499401376681
 20
-120.3031325853201
 97
        0
 97
        1
330
88
 75
     2
 76
     1
 98
        1
 10
0.0
 20
0.0
450
        0
451
        0
460
0.0
461
0.0
452
        0
462
0.0
453
        0
470

  0
SPLINE
  5
8A
330
79
100
AcDbEntity
  8
Calque 1
100
AcDbSpline
210
0.0
220
0.0
230
1.0
 70
    11
 71
     3
 72
    17
 73
    13
 74
     0
 42
0.0000000001
 43
0.0000000001
 40
0.0
 40
0.0
 40
0.0
 40
0.0
 40
1.0
 40
1.0
 40
1.0
 40
2.0
 40
2.0
 40
2.0
 40
3.0
 40
3.0
 40
3.0
 40
4.0
 40
4.0
 40
4.0
 40
4.0
 10
76.08079967716036
 20
-120.3031325853201
 30
0.0
 10
76.08079967716036
 20
-120.3031325853201
 30
0.0
 10
75.59848630922537
 20
-120.3031325853201
 30
0.0
 10
75.59848630922537
 20
-120.3031325853201
 30
0.0
 10
75.59848630922537
 20
-120.3031325853201
 30
0.0
 10
75.59848630922537
 20
-118.2893020194173
 30
0.0
 10
75.59848630922537
 20
-118.2893020194173
 30
0.0
 10
75.59848630922537
 20
-118.2893020194173
 30
0.0
 10
76.08079967716036
 20
-118.2893020194173
 30
0.0
 10
76.08079967716036
 20
-118.2893020194173
 30
0.0
 10
76.08079967716036
 20
-118.2893020194173
 30
0.0
 10
76.08079967716036
 20
-120.3031325853201
 30
0.0
 10
76.08079967716036
 20
-120.3031325853201
 30
0.0
  0
SPLINE
  5
8B
330
79
100
AcDbEntity
  8
Calque 1
100
AcDbSpline
210
0.0
220
0.0
230
1.0
 70
    11
 71
     3
 72
    17
 73
    13
 74
     0
 42
0.0000000001
 43
0.0000000001
 40
0.0
 40
0.0
 40
0.0
 40
0.0
 40
1.0
 40
1.0
 40
1.0
 40
2.0
 40
2.0
 40
2.0
 40
3.0
 40
3.0
 40
3.0
 40
4.0
 40
4.0
 40
4.0
 40
4.0
 10
76.08079967716036
 20
-117.9170594522361
 30
0.0
 10
76.08079967716036
 20
-117.9170594522361
 30
0.0
 10
75.59848630922537
 20
-117.9170594522361
 30
0.0
 10
75.59848630922537
 20
-117.9170594522361
 30
0.0
 10
75.59848630922537
 20
-117.9170594522361
 30
0.0
 10
75.59848630922537
 20
-117.426133345588
 30
0.0
 10
75.59848630922537
 20
-117.426133345588
 30
0.0
 10
75.59848630922537
 20
-117.426133345588
 30
0.0
 10
76.08079967716036
 20
-117.426133345588
 30
0.0
 10
76.08079967716036
 20
-117.426133345588
 30
0.0
 10
76.08079967716036
 20
-117.426133345588
 30
0.0
 10
76.08079967716036
 20
-117.9170594522361
 30
0.0
 10
76.08079967716036
 20
-117.9170594522361
 30
0.0
  0
HATCH
  5
8C
330
79
100
AcDbEntity
  8
Calque 1
 62
   250
420
  1907995
440
 33554687
100
AcDbHatch
 10
0.0
 20
0.0
 30
0.0
210
0.0
220
0.0
230
1.0
  2
SOLID
 70
     1
 71
     1
 91
        2
 92
        1
 93
        1
 72
     4
 94
        3
 73
     0
 74
     0
 95
       17
 96
       13
 40
0.0
 40
0.0
 40
0.0
 40
0.0
 40
1.0
 40
1.0
 40
1.0
 40
2.0
 40
2.0
 40
2.0
 40
3.0
 40
3.0
 40
3.0
 40
4.0
 40
4.0
 40
4.0
 40
4.0
 10
76.08079967716036
 20
-120.3031325853201
 10
76.08079967716036
 20
-120.3031325853201
 10
75.59848630922537
 20
-120.3031325853201
 10
75.59848630922537
 20
-120.3031325853201
 10
75.59848630922537
 20
-120.3031325853201
 10
75.59848630922537
 20
-118.2893020194173
 10
75.59848630922537
 20
-118.2893020194173
 10
75.59848630922537
 20
-118.2893020194173
 10
76.08079967716036
 20
-118.2893020194173
 10
76.08079967716036
 20
-118.2893020194173
 10
76.08079967716036
 20
-118.2893020194173
 10
76.08079967716036
 20
-120.3031325853201
 10
76.08079967716036
 20
-120.3031325853201
 97
        0
 97
        1
330
8A
 92
        1
 93
        1
 72
     4
 94
        3
 73
     0
 74
     0
 95
       17
 96
       13
 40
0.0
 40
0.0
 40
0.0
 40
0.0
 40
1.0
 40
1.0
 40
1.0
 40
2.0
 40
2.0
 40
2.0
 40
3.0
 40
3.0
 40
3.0
 40
4.0
 40
4.0
 40
4.0
 40
4.0
 10
76.08079967716036
 20
-117.9170594522361
 10
76.08079967716036
 20
-117.9170594522361
 10
75.59848630922537
 20
-117.9170594522361
 10
75.59848630922537
 20
-117.9170594522361
 10
75.59848630922537
 20
-117.9170594522361
 10
75.59848630922537
 20
-117.426133345588
 10
75.59848630922537
 20
-117.426133345588
 10
75.59848630922537
 20
-117.426133345588
 10
76.08079967716036
 20
-117.426133345588
 10
76.08079967716036
 20
-117.426133345588
 10
76.08079967716036
 20
-117.426133345588
 10
76.08079967716036
 20
-117.9170594522361
 10
76.08079967716036
 20
-117.9170594522361
 97
        0
 97
        1
330
8B
 75
     2
 76
     1
 98
        1
 10
0.0
 20
0.0
450
        0
451
        0
460
0.0
461
0.0
452
        0
462
0.0
453
        0
470

  0
SPLINE
  5
8D
330
79
100
AcDbEntity
  8
Calque 1
100
AcDbSpline
210
0.0
220
0.0
230
1.0
 70
     9
 71
     3
 72
    35
 73
    31
 74
     0
 42
0.0000000001
 43
0.0000000001
 40
0.0
 40
0.0
 40
0.0
 40
0.0
 40
1.0
 40
1.0
 40
1.0
 40
2.0
 40
2.0
 40
2.0
 40
3.0
 40
3.0
 40
3.0
 40
4.0
 40
4.0
 40
4.0
 40
5.0
 40
5.0
 40
5.0
 40
6.0
 40
6.0
 40
6.0
 40
7.0
 40
7.0
 40
7.0
 40
8.0
 40
8.0
 40
8.0
 40
9.0
 40
9.0
 40
9.0
 40
10.0
 40
10.0
 40
10.0
 40
10.0
 10
77.97250160811104
 20
-119.0213848100329
 30
0.0
 10
77.90049911246931
 20
-118.805549577882
 30
0.0
 10
77.74822589202128
 20
-118.6574104720163
 30
0.0
 10
77.50293509347149
 20
-118.6574104720163
 30
0.0
 10
77.18150768469768
 20
-118.6574104720163
 30
0.0
 10
76.97824705106794
 20
-118.8944330414015
 30
0.0
 10
76.97824705106794
 20
-119.2963034297559
 30
0.0
 10
76.97824705106794
 20
-119.6981738181102
 30
0.0
 10
77.18564179927998
 20
-119.9351963874954
 30
0.0
 10
77.50293509347149
 20
-119.9351963874954
 30
0.0
 10
77.77785371319443
 20
-119.9351963874954
 30
0.0
 10
77.91324596576474
 20
-119.7743104283343
 30
0.0
 10
77.98524846140647
 20
-119.5924093867131
 30
0.0
 10
77.98524846140647
 20
-119.5924093867131
 30
0.0
 10
78.37454425123969
 20
-119.7998041349251
 30
0.0
 10
78.37454425123969
 20
-119.7998041349251
 30
0.0
 10
78.28152667313796
 20
-120.0154671123017
 30
0.0
 10
78.0062635438665
 20
-120.3541199985018
 30
0.0
 10
77.49018824017607
 20
-120.3541199985018
 30
0.0
 10
76.90624455542622
 20
-120.3541199985018
 30
0.0
 10
76.50006779771526
 20
-119.9817051765463
 30
0.0
 10
76.50006779771526
 20
-119.3047439136947
 30
0.0
 10
76.50006779771526
 20
-118.6277826508431
 30
0.0
 10
76.93587237659937
 20
-118.2427932303664
 30
0.0
 10
77.49018824017607
 20
-118.2427932303664
 30
0.0
 10
77.95975475481562
 20
-118.2427932303664
 30
0.0
 10
78.25189885196481
 20
-118.4923903982728
 30
0.0
 10
78.37454425123969
 20
-118.8096836924643
 30
0.0
 10
78.37454425123969
 20
-118.8096836924643
 30
0.0
 10
77.97250160811104
 20
-119.0213848100329
 30
0.0
 10
77.97250160811104
 20
-119.0213848100329
 30
0.0
  0
HATCH
  5
8E
330
79
100
AcDbEntity
  8
Calque 1
 62
   250
420
  1907995
440
 33554687
100
AcDbHatch
 10
0.0
 20
0.0
 30
0.0
210
0.0
220
0.0
230
1.0
  2
SOLID
 70
     1
 71
     1
 91
        1
 92
        1
 93
        1
 72
     4
 94
        3
 73
     0
 74
     0
 95
       35
 96
       31
 40
0.0
 40
0.0
 40
0.0
 40
0.0
 40
1.0
 40
1.0
 40
1.0
 40
2.0
 40
2.0
 40
2.0
 40
3.0
 40
3.0
 40
3.0
 40
4.0
 40
4.0
 40
4.0
 40
5.0
 40
5.0
 40
5.0
 40
6.0
 40
6.0
 40
6.0
 40
7.0
 40
7.0
 40
7.0
 40
8.0
 40
8.0
 40
8.0
 40
9.0
 40
9.0
 40
9.0
 40
10.0
 40
10.0
 40
10.0
 40
10.0
 10
77.97250160811104
 20
-119.0213848100329
 10
77.90049911246931
 20
-118.805549577882
 10
77.74822589202128
 20
-118.6574104720163
 10
77.50293509347149
 20
-118.6574104720163
 10
77.18150768469768
 20
-118.6574104720163
 10
76.97824705106794
 20
-118.8944330414015
 10
76.97824705106794
 20
-119.2963034297559
 10
76.97824705106794
 20
-119.6981738181102
 10
77.18564179927998
 20
-119.9351963874954
 10
77.50293509347149
 20
-119.9351963874954
 10
77.77785371319443
 20
-119.9351963874954
 10
77.91324596576474
 20
-119.7743104283343
 10
77.98524846140647
 20
-119.5924093867131
 10
77.98524846140647
 20
-119.5924093867131
 10
78.37454425123969
 20
-119.7998041349251
 10
78.37454425123969
 20
-119.7998041349251
 10
78.28152667313796
 20
-120.0154671123017
 10
78.0062635438665
 20
-120.3541199985018
 10
77.49018824017607
 20
-120.3541199985018
 10
76.90624455542622
 20
-120.3541199985018
 10
76.50006779771526
 20
-119.9817051765463
 10
76.50006779771526
 20
-119.3047439136947
 10
76.50006779771526
 20
-118.6277826508431
 10
76.93587237659937
 20
-118.2427932303664
 10
77.49018824017607
 20
-118.2427932303664
 10
77.95975475481562
 20
-118.2427932303664
 10
78.25189885196481
 20
-118.4923903982728
 10
78.37454425123969
 20
-118.8096836924643
 10
78.37454425123969
 20
-118.8096836924643
 10
77.97250160811104
 20
-119.0213848100329
 10
77.97250160811104
 20
-119.0213848100329
 97
        0
 97
        1
330
8D
 75
     2
 76
     1
 98
        1
 10
0.0
 20
0.0
450
        0
451
        0
460
0.0
461
0.0
452
        0
462
0.0
453
        0
470

  0
SPLINE
  5
8F
330
79
100
AcDbEntity
  8
Calque 1
100
AcDbSpline
210
0.0
220
0.0
230
1.0
 70
    11
 71
     3
 72
    38
 73
    34
 74
     0
 42
0.0000000001
 43
0.0000000001
 40
0.0
 40
0.0
 40
0.0
 40
0.0
 40
1.0
 40
1.0
 40
1.0
 40
2.0
 40
2.0
 40
2.0
 40
3.0
 40
3.0
 40
3.0
 40
4.0
 40
4.0
 40
4.0
 40
5.0
 40
5.0
 40
5.0
 40
6.0
 40
6.0
 40
6.0
 40
7.0
 40
7.0
 40
7.0
 40
8.0
 40
8.0
 40
8.0
 40
9.0
 40
9.0
 40
9.0
 40
10.0
 40
10.0
 40
10.0
 40
11.0
 40
11.0
 40
11.0
 40
11.0
 10
79.23478459390658
 20
-118.2893020194173
 30
0.0
 10
79.23478459390658
 20
-118.2893020194173
 30
0.0
 10
79.23478459390658
 20
-118.5855802311488
 30
0.0
 10
79.23478459390658
 20
-118.5855802311488
 30
0.0
 10
79.27268064424433
 20
-118.4839499143339
 30
0.0
 10
79.43356660340549
 20
-118.2384868610099
 30
0.0
 10
79.82286239323873
 20
-118.2384868610099
 30
0.0
 10
79.84801159028106
 20
-118.2384868610099
 30
0.0
 10
79.85662432899419
 20
-118.2384868610099
 30
0.0
 10
79.89899900346275
 20
-118.2427932303664
 30
0.0
 10
79.89899900346275
 20
-118.2427932303664
 30
0.0
 10
79.89899900346275
 20
-118.7335470822403
 30
0.0
 10
79.89899900346275
 20
-118.7335470822403
 30
0.0
 10
79.85249021441188
 20
-118.729412967658
 30
0.0
 10
79.80563691581249
 20
-118.7251065983014
 30
0.0
 10
79.76360675089243
 20
-118.7251065983014
 30
0.0
 10
79.50556909904722
 20
-118.7251065983014
 30
0.0
 10
79.36156410776378
 20
-118.8182964311774
 30
0.0
 10
79.28956161212205
 20
-119.0001974727986
 30
0.0
 10
79.25166556178431
 20
-119.1016555348392
 30
0.0
 10
79.23478459390658
 20
-119.2201668195318
 30
0.0
 10
79.23478459390658
 20
-119.3979337465707
 30
0.0
 10
79.23478459390658
 20
-119.3979337465707
 30
0.0
 10
79.23478459390658
 20
-120.3031325853201
 30
0.0
 10
79.23478459390658
 20
-120.3031325853201
 30
0.0
 10
79.23478459390658
 20
-120.3031325853201
 30
0.0
 10
78.75212671642308
 20
-120.3031325853201
 30
0.0
 10
78.75212671642308
 20
-120.3031325853201
 30
0.0
 10
78.75212671642308
 20
-120.3031325853201
 30
0.0
 10
78.75212671642308
 20
-118.2893020194173
 30
0.0
 10
78.75212671642308
 20
-118.2893020194173
 30
0.0
 10
78.75212671642308
 20
-118.2893020194173
 30
0.0
 10
79.23478459390658
 20
-118.2893020194173
 30
0.0
 10
79.23478459390658
 20
-118.2893020194173
 30
0.0
  0
HATCH
  5
90
330
79
100
AcDbEntity
  8
Calque 1
 62
   250
420
  1907995
440
 33554687
100
AcDbHatch
 10
0.0
 20
0.0
 30
0.0
210
0.0
220
0.0
230
1.0
  2
SOLID
 70
     1
 71
     1
 91
        1
 92
        1
 93
        1
 72
     4
 94
        3
 73
     0
 74
     0
 95
       38
 96
       34
 40
0.0
 40
0.0
 40
0.0
 40
0.0
 40
1.0
 40
1.0
 40
1.0
 40
2.0
 40
2.0
 40
2.0
 40
3.0
 40
3.0
 40
3.0
 40
4.0
 40
4.0
 40
4.0
 40
5.0
 40
5.0
 40
5.0
 40
6.0
 40
6.0
 40
6.0
 40
7.0
 40
7.0
 40
7.0
 40
8.0
 40
8.0
 40
8.0
 40
9.0
 40
9.0
 40
9.0
 40
10.0
 40
10.0
 40
10.0
 40
11.0
 40
11.0
 40
11.0
 40
11.0
 10
79.23478459390658
 20
-118.2893020194173
 10
79.23478459390658
 20
-118.2893020194173
 10
79.23478459390658
 20
-118.5855802311488
 10
79.23478459390658
 20
-118.5855802311488
 10
79.27268064424433
 20
-118.4839499143339
 10
79.43356660340549
 20
-118.2384868610099
 10
79.82286239323873
 20
-118.2384868610099
 10
79.84801159028106
 20
-118.2384868610099
 10
79.85662432899419
 20
-118.2384868610099
 10
79.89899900346275
 20
-118.2427932303664
 10
79.89899900346275
 20
-118.2427932303664
 10
79.89899900346275
 20
-118.7335470822403
 10
79.89899900346275
 20
-118.7335470822403
 10
79.85249021441188
 20
-118.729412967658
 10
79.80563691581249
 20
-118.7251065983014
 10
79.76360675089243
 20
-118.7251065983014
 10
79.50556909904722
 20
-118.7251065983014
 10
79.36156410776378
 20
-118.8182964311774
 10
79.28956161212205
 20
-119.0001974727986
 10
79.25166556178431
 20
-119.1016555348392
 10
79.23478459390658
 20
-119.2201668195318
 10
79.23478459390658
 20
-119.3979337465707
 10
79.23478459390658
 20
-119.3979337465707
 10
79.23478459390658
 20
-120.3031325853201
 10
79.23478459390658
 20
-120.3031325853201
 10
79.23478459390658
 20
-120.3031325853201
 10
78.75212671642308
 20
-120.3031325853201
 10
78.75212671642308
 20
-120.3031325853201
 10
78.75212671642308
 20
-120.3031325853201
 10
78.75212671642308
 20
-118.2893020194173
 10
78.75212671642308
 20
-118.2893020194173
 10
78.75212671642308
 20
-118.2893020194173
 10
79.23478459390658
 20
-118.2893020194173
 10
79.23478459390658
 20
-118.2893020194173
 97
        0
 97
        1
330
8F
 75
     2
 76
     1
 98
        1
 10
0.0
 20
0.0
450
        0
451
        0
460
0.0
461
0.0
452
        0
462
0.0
453
        0
470

  0
SPLINE
  5
91
330
79
100
AcDbEntity
  8
Calque 1
100
AcDbSpline
210
0.0
220
0.0
230
1.0
 70
     9
 71
     3
 72
    17
 73
    13
 74
     0
 42
0.0000000001
 43
0.0000000001
 40
0.0
 40
0.0
 40
0.0
 40
0.0
 40
1.0
 40
1.0
 40
1.0
 40
2.0
 40
2.0
 40
2.0
 40
3.0
 40
3.0
 40
3.0
 40
4.0
 40
4.0
 40
4.0
 40
4.0
 10
81.12235241027496
 20
-119.9393305020777
 30
0.0
 10
81.43137747530188
 20
-119.9393305020777
 30
0.0
 10
81.65117456726083
 20
-119.6940397035279
 30
0.0
 10
81.65117456726083
 20
-119.2963034297559
 30
0.0
 10
81.65117456726083
 20
-118.8901266720449
 30
0.0
 10
81.43964570446648
 20
-118.653276357434
 30
0.0
 10
81.12235241027496
 20
-118.653276357434
 30
0.0
 10
80.80505911608346
 20
-118.653276357434
 30
0.0
 10
80.59353025328912
 20
-118.8944330414015
 30
0.0
 10
80.59353025328912
 20
-119.2963034297559
 30
0.0
 10
80.59353025328912
 20
-119.6981738181102
 30
0.0
 10
80.81367185479658
 20
-119.9393305020777
 30
0.0
 10
81.12235241027496
 20
-119.9393305020777
 30
0.0
  0
SPLINE
  5
92
330
79
100
AcDbEntity
  8
Calque 1
100
AcDbSpline
210
0.0
220
0.0
230
1.0
 70
     9
 71
     3
 72
    17
 73
    13
 74
     0
 42
0.0000000001
 43
0.0000000001
 40
0.0
 40
0.0
 40
0.0
 40
0.0
 40
1.0
 40
1.0
 40
1.0
 40
2.0
 40
2.0
 40
2.0
 40
3.0
 40
3.0
 40
3.0
 40
4.0
 40
4.0
 40
4.0
 40
4.0
 10
81.12235241027496
 20
-118.2427932303664
 30
0.0
 10
81.73592391619797
 20
-118.2427932303664
 30
0.0
 10
82.12935382061351
 20
-118.6574104720163
 30
0.0
 10
82.12935382061351
 20
-119.3047439136947
 30
0.0
 10
82.12935382061351
 20
-119.9479432407908
 30
0.0
 10
81.74005803078026
 20
-120.3541199985018
 30
0.0
 10
81.12235241027496
 20
-120.3541199985018
 30
0.0
 10
80.50464678976968
 20
-120.3541199985018
 30
0.0
 10
80.11535099993643
 20
-119.9479432407908
 30
0.0
 10
80.11535099993643
 20
-119.3047439136947
 30
0.0
 10
80.11535099993643
 20
-118.6574104720163
 30
0.0
 10
80.50912541390051
 20
-118.2427932303664
 30
0.0
 10
81.12235241027496
 20
-118.2427932303664
 30
0.0
  0
HATCH
  5
93
330
79
100
AcDbEntity
  8
Calque 1
 62
   250
420
  1907995
440
 33554687
100
AcDbHatch
 10
0.0
 20
0.0
 30
0.0
210
0.0
220
0.0
230
1.0
  2
SOLID
 70
     1
 71
     1
 91
        2
 92
        1
 93
        1
 72
     4
 94
        3
 73
     0
 74
     0
 95
       17
 96
       13
 40
0.0
 40
0.0
 40
0.0
 40
0.0
 40
1.0
 40
1.0
 40
1.0
 40
2.0
 40
2.0
 40
2.0
 40
3.0
 40
3.0
 40
3.0
 40
4.0
 40
4.0
 40
4.0
 40
4.0
 10
81.12235241027496
 20
-119.9393305020777
 10
81.43137747530188
 20
-119.9393305020777
 10
81.65117456726083
 20
-119.6940397035279
 10
81.65117456726083
 20
-119.2963034297559
 10
81.65117456726083
 20
-118.8901266720449
 10
81.43964570446648
 20
-118.653276357434
 10
81.12235241027496
 20
-118.653276357434
 10
80.80505911608346
 20
-118.653276357434
 10
80.59353025328912
 20
-118.8944330414015
 10
80.59353025328912
 20
-119.2963034297559
 10
80.59353025328912
 20
-119.6981738181102
 10
80.81367185479658
 20
-119.9393305020777
 10
81.12235241027496
 20
-119.9393305020777
 97
        0
 97
        1
330
91
 92
        1
 93
        1
 72
     4
 94
        3
 73
     0
 74
     0
 95
       17
 96
       13
 40
0.0
 40
0.0
 40
0.0
 40
0.0
 40
1.0
 40
1.0
 40
1.0
 40
2.0
 40
2.0
 40
2.0
 40
3.0
 40
3.0
 40
3.0
 40
4.0
 40
4.0
 40
4.0
 40
4.0
 10
81.12235241027496
 20
-118.2427932303664
 10
81.73592391619797
 20
-118.2427932303664
 10
82.12935382061351
 20
-118.6574104720163
 10
82.12935382061351
 20
-119.3047439136947
 10
82.12935382061351
 20
-119.9479432407908
 10
81.74005803078026
 20
-120.3541199985018
 10
81.12235241027496
 20
-120.3541199985018
 10
80.50464678976968
 20
-120.3541199985018
 10
80.11535099993643
 20
-119.9479432407908
 10
80.11535099993643
 20
-119.3047439136947
 10
80.11535099993643
 20
-118.6574104720163
 10
80.50912541390051
 20
-118.2427932303664
 10
81.12235241027496
 20
-118.2427932303664
 97
        0
 97
        1
330
92
 75
     2
 76
     1
 98
        1
 10
0.0
 20
0.0
450
        0
451
        0
460
0.0
461
0.0
452
        0
462
0.0
453
        0
470

  0
SPLINE
  5
94
330
79
100
AcDbEntity
  8
Calque 1
100
AcDbSpline
210
0.0
220
0.0
230
1.0
 70
     9
 71
     3
 72
    53
 73
    49
 74
     0
 42
0.0000000001
 43
0.0000000001
 40
0.0
 40
0.0
 40
0.0
 40
0.0
 40
1.0
 40
1.0
 40
1.0
 40
2.0
 40
2.0
 40
2.0
 40
3.0
 40
3.0
 40
3.0
 40
4.0
 40
4.0
 40
4.0
 40
5.0
 40
5.0
 40
5.0
 40
6.0
 40
6.0
 40
6.0
 40
7.0
 40
7.0
 40
7.0
 40
8.0
 40
8.0
 40
8.0
 40
9.0
 40
9.0
 40
9.0
 40
10.0
 40
10.0
 40
10.0
 40
11.0
 40
11.0
 40
11.0
 40
12.0
 40
12.0
 40
12.0
 40
13.0
 40
13.0
 40
13.0
 40
14.0
 40
14.0
 40
14.0
 40
15.0
 40
15.0
 40
15.0
 40
16.0
 40
16.0
 40
16.0
 40
16.0
 10
83.84432235317087
 20
-118.8604988508717
 30
0.0
 10
83.70479598601825
 20
-118.7251065983014
 30
0.0
 10
83.51014809110163
 20
-118.6320890201997
 30
0.0
 10
83.27725963629875
 20
-118.6320890201997
 30
0.0
 10
83.08709036551295
 20
-118.6320890201997
 30
0.0
 10
82.9472194888118
 20
-118.6997851464848
 30
0.0
 10
82.9472194888118
 20
-118.8308710296986
 30
0.0
 10
82.9472194888118
 20
-118.9747037662078
 30
0.0
 10
83.08709036551295
 20
-119.0043315873809
 30
0.0
 10
83.37062172394901
 20
-119.0635872297272
 30
0.0
 10
83.37062172394901
 20
-119.0635872297272
 30
0.0
 10
83.61177840791651
 20
-119.1187087574912
 30
0.0
 10
83.61177840791651
 20
-119.1187087574912
 30
0.0
 10
83.9163248488126
 20
-119.1905389983587
 30
0.0
 10
84.19124346853553
 20
-119.3047439136947
 30
0.0
 10
84.19124346853553
 20
-119.6726801115194
 30
0.0
 10
84.19124346853553
 20
-120.1339783969944
 30
0.0
 10
83.77231985752914
 20
-120.3541199985018
 30
0.0
 10
83.31136608160271
 20
-120.3541199985018
 30
0.0
 10
82.82905271366773
 20
-120.3541199985018
 30
0.0
 10
82.50314668076311
 20
-120.1170974291166
 30
0.0
 10
82.3805012814882
 20
-119.94346461666
 30
0.0
 10
82.3805012814882
 20
-119.94346461666
 30
0.0
 10
82.70606280484432
 20
-119.6557991436417
 30
0.0
 10
82.70606280484432
 20
-119.6557991436417
 30
0.0
 10
82.82043997495462
 20
-119.8080723640897
 30
0.0
 10
83.01508786987124
 20
-119.9562114699554
 30
0.0
 10
83.3237684253496
 20
-119.9562114699554
 30
0.0
 10
83.5649251093171
 20
-119.9562114699554
 30
0.0
 10
83.70479598601825
 20
-119.8718066305668
 30
0.0
 10
83.70479598601825
 20
-119.7278016392834
 30
0.0
 10
83.70479598601825
 20
-119.5882752721308
 30
0.0
 10
83.59041881590796
 20
-119.5629538203142
 30
0.0
 10
83.39577092099133
 20
-119.5205791458456
 30
0.0
 10
83.39577092099133
 20
-119.5205791458456
 30
0.0
 10
83.09535859467755
 20
-119.4570171341428
 30
0.0
 10
83.09535859467755
 20
-119.4570171341428
 30
0.0
 10
82.74430336473059
 20
-119.3808805239187
 30
0.0
 10
82.46938474500765
 20
-119.2329136728272
 30
0.0
 10
82.46938474500765
 20
-118.8648052202283
 30
0.0
 10
82.46938474500765
 20
-118.4246942719876
 30
0.0
 10
82.89657658517864
 20
-118.2384868610099
 30
0.0
 10
83.28173826042956
 20
-118.2384868610099
 30
0.0
 10
83.6834363940097
 20
-118.2384868610099
 30
0.0
 10
83.9924614590366
 20
-118.4162537880488
 30
0.0
 10
84.12371959702463
 20
-118.560086524558
 30
0.0
 10
84.12371959702463
 20
-118.560086524558
 30
0.0
 10
83.84432235317087
 20
-118.8604988508717
 30
0.0
 10
83.84432235317087
 20
-118.8604988508717
 30
0.0
  0
HATCH
  5
95
330
79
100
AcDbEntity
  8
Calque 1
 62
   250
420
  1907995
440
 33554687
100
AcDbHatch
 10
0.0
 20
0.0
 30
0.0
210
0.0
220
0.0
230
1.0
  2
SOLID
 70
     1
 71
     1
 91
        1
 92
        1
 93
        1
 72
     4
 94
        3
 73
     0
 74
     0
 95
       53
 96
       49
 40
0.0
 40
0.0
 40
0.0
 40
0.0
 40
1.0
 40
1.0
 40
1.0
 40
2.0
 40
2.0
 40
2.0
 40
3.0
 40
3.0
 40
3.0
 40
4.0
 40
4.0
 40
4.0
 40
5.0
 40
5.0
 40
5.0
 40
6.0
 40
6.0
 40
6.0
 40
7.0
 40
7.0
 40
7.0
 40
8.0
 40
8.0
 40
8.0
 40
9.0
 40
9.0
 40
9.0
 40
10.0
 40
10.0
 40
10.0
 40
11.0
 40
11.0
 40
11.0
 40
12.0
 40
12.0
 40
12.0
 40
13.0
 40
13.0
 40
13.0
 40
14.0
 40
14.0
 40
14.0
 40
15.0
 40
15.0
 40
15.0
 40
16.0
 40
16.0
 40
16.0
 40
16.0
 10
83.84432235317087
 20
-118.8604988508717
 10
83.70479598601825
 20
-118.7251065983014
 10
83.51014809110163
 20
-118.6320890201997
 10
83.27725963629875
 20
-118.6320890201997
 10
83.08709036551295
 20
-118.6320890201997
 10
82.9472194888118
 20
-118.6997851464848
 10
82.9472194888118
 20
-118.8308710296986
 10
82.9472194888118
 20
-118.9747037662078
 10
83.08709036551295
 20
-119.0043315873809
 10
83.37062172394901
 20
-119.0635872297272
 10
83.37062172394901
 20
-119.0635872297272
 10
83.61177840791651
 20
-119.1187087574912
 10
83.61177840791651
 20
-119.1187087574912
 10
83.9163248488126
 20
-119.1905389983587
 10
84.19124346853553
 20
-119.3047439136947
 10
84.19124346853553
 20
-119.6726801115194
 10
84.19124346853553
 20
-120.1339783969944
 10
83.77231985752914
 20
-120.3541199985018
 10
83.31136608160271
 20
-120.3541199985018
 10
82.82905271366773
 20
-120.3541199985018
 10
82.50314668076311
 20
-120.1170974291166
 10
82.3805012814882
 20
-119.94346461666
 10
82.3805012814882
 20
-119.94346461666
 10
82.70606280484432
 20
-119.6557991436417
 10
82.70606280484432
 20
-119.6557991436417
 10
82.82043997495462
 20
-119.8080723640897
 10
83.01508786987124
 20
-119.9562114699554
 10
83.3237684253496
 20
-119.9562114699554
 10
83.5649251093171
 20
-119.9562114699554
 10
83.70479598601825
 20
-119.8718066305668
 10
83.70479598601825
 20
-119.7278016392834
 10
83.70479598601825
 20
-119.5882752721308
 10
83.59041881590796
 20
-119.5629538203142
 10
83.39577092099133
 20
-119.5205791458456
 10
83.39577092099133
 20
-119.5205791458456
 10
83.09535859467755
 20
-119.4570171341428
 10
83.09535859467755
 20
-119.4570171341428
 10
82.74430336473059
 20
-119.3808805239187
 10
82.46938474500765
 20
-119.2329136728272
 10
82.46938474500765
 20
-118.8648052202283
 10
82.46938474500765
 20
-118.4246942719876
 10
82.89657658517864
 20
-118.2384868610099
 10
83.28173826042956
 20
-118.2384868610099
 10
83.6834363940097
 20
-118.2384868610099
 10
83.9924614590366
 20
-118.4162537880488
 10
84.12371959702463
 20
-118.560086524558
 10
84.12371959702463
 20
-118.560086524558
 10
83.84432235317087
 20
-118.8604988508717
 10
83.84432235317087
 20
-118.8604988508717
 97
        0
 97
        1
330
94
 75
     2
 76
     1
 98
        1
 10
0.0
 20
0.0
450
        0
451
        0
460
0.0
461
0.0
452
        0
462
0.0
453
        0
470

  0
ENDBLK
  5
7C
330
79
100
AcDbEntity
  8
0
100
AcDbBlockEnd
  0
ENDSEC
  0
SECTION
  2
ENTITIES
  0
INSERT
  5
7A
330
70
100
AcDbEntity
  8
Calque 1
100
AcDbBlockReference
  2
Block_0
 10
0.0
 20
0.0
 30
0.0
  0
ENDSEC
  0
SECTION
  2
OBJECTS
  0
DICTIONARY
  5
C
330
0
100
AcDbDictionary
281
     1
  3
ACAD_COLOR
350
63
  3
ACAD_DETAILVIEWSTYLE
350
6A
  3
ACAD_GROUP
350
D
  3
ACAD_LAYOUT
350
62
  3
ACAD_MATERIAL
350
10
  3
ACAD_MLEADERSTYLE
350
66
  3
ACAD_MLINESTYLE
350
5F
  3
ACAD_PLOTSETTINGS
350
61
  3
ACAD_PLOTSTYLENAME
350
E
  3
ACAD_SCALELIST
350
42
  3
ACAD_SECTIONVIEWSTYLE
350
68
  3
ACAD_TABLESTYLE
350
64
  3
ACAD_VISUALSTYLE
350
29
  3
ACDB_RECOMPOSE_DATA
350
9E
  3
AcDbVariableDictionary
350
96
  0
DICTIONARY
  5
63
102
{ACAD_REACTORS
330
C
102
}
330
C
100
AcDbDictionary
281
     1
  0
DICTIONARY
  5
6A
102
{ACAD_REACTORS
330
C
102
}
330
C
100
AcDbDictionary
281
     1
  3
Imperial24
350
6B
  0
DICTIONARY
  5
D
102
{ACAD_REACTORS
330
C
102
}
330
C
100
AcDbDictionary
281
     1
  0
DICTIONARY
  5
62
102
{ACAD_REACTORS
330
C
102
}
330
C
100
AcDbDictionary
281
     1
  3
Layout1
350
6F
  3
Layout2
350
77
  3
Model
350
73
  0
DICTIONARY
  5
10
102
{ACAD_REACTORS
330
C
102
}
330
C
100
AcDbDictionary
281
     1
  3
ByBlock
350
19
  3
ByLayer
350
11
  3
Global
350
21
  0
DICTIONARY
  5
66
102
{ACAD_REACTORS
330
C
102
}
330
C
100
AcDbDictionary
281
     1
  3
Standard
350
67
  0
DICTIONARY
  5
5F
102
{ACAD_REACTORS
330
C
102
}
330
C
100
AcDbDictionary
281
     1
  3
Standard
350
60
  0
DICTIONARY
  5
61
102
{ACAD_REACTORS
330
C
102
}
330
C
100
AcDbDictionary
281
     1
  0
ACDBDICTIONARYWDFLT
  5
E
102
{ACAD_REACTORS
330
C
102
}
330
C
100
AcDbDictionary
281
     1
  3
Normal
350
F
100
AcDbDictionaryWithDefault
340
F
  0
DICTIONARY
  5
42
102
{ACAD_REACTORS
330
C
102
}
330
C
100
AcDbDictionary
281
     1
  3
A0
350
43
  3
A1
350
44
  3
A2
350
45
  3
A3
350
46
  3
A4
350
47
  3
A5
350
48
  3
A6
350
49
  3
A7
350
4A
  3
A8
350
4B
  3
A9
350
4C
  3
B0
350
4D
  3
B1
350
4E
  3
B2
350
4F
  3
B3
350
50
  3
B4
350
51
  3
B5
350
52
  3
B6
350
53
  0
DICTIONARY
  5
68
102
{ACAD_REACTORS
330
C
102
}
330
C
100
AcDbDictionary
281
     1
  3
Imperial24
350
69
  0
DICTIONARY
  5
64
102
{ACAD_REACTORS
330
C
102
}
330
C
100
AcDbDictionary
281
     1
  3
Standard
350
65
  0
DICTIONARY
  5
29
102
{ACAD_REACTORS
330
C
102
}
330
C
100
AcDbDictionary
281
     1
  3
2dWireframe
350
2F
  3
Basic
350
2E
  3
Brighten
350
35
  3
ColorChange
350
39
  3
Conceptual
350
32
  3
Dim
350
34
  3
EdgeColorOff
350
41
  3
Facepattern
350
38
  3
Flat
350
2A
  3
FlatWithEdges
350
2B
  3
Gouraud
350
2C
  3
GouraudWithEdges
350
2D
  3
Hidden
350
31
  3
JitterOff
350
3F
  3
Linepattern
350
37
  3
OverhangOff
350
40
  3
Realistic
350
33
  3
Shaded
350
3E
  3
Shaded with edges
350
3D
  3
Shades of Gray
350
3A
  3
Sketchy
350
3B
  3
Thicken
350
36
  3
Wireframe
350
30
  3
X-Ray
350
3C
  0
XRECORD
  5
9E
102
{ACAD_REACTORS
330
C
102
}
330
C
100
AcDbXrecord
280
     1
 90
        1
330
65
  0
DICTIONARY
  5
96
102
{ACAD_REACTORS
330
C
102
}
330
C
100
AcDbDictionary
281
     1
  3
CANNOSCALE
350
9B
  3
CMLEADERSTYLE
350
98
  3
CTABLESTYLE
350
97
  3
CVIEWDETAILSTYLE
350
99
  3
CVIEWSECTIONSTYLE
350
9A
  0
ACDBDETAILVIEWSTYLE
  5
6B
102
{ACAD_REACTORS
330
6A
102
}
330
6A
100
AcDbModelDocViewStyle
 70
     0
  3
Imperial24
290
     1
300
Imperial24
 90
        0
100
AcDbDetailViewStyle
 70
     0
 71
     0
 90
        3
 71
     1
340
55
 62
   256
 40
0.24
340
0
 62
   256
 40
0.24
300

 40
0.36
280
     3
 71
     2
340
5D
 90
       25
 62
   256
 71
     3
340
55
 62
   256
 40
0.24
 90
        1
 40
0.75
 90
        1
300
%<\AcVar ViewType \f "%tc1">% %<\AcVar ViewDetailId>%\PSCALE %<\AcVar ViewScale \f "%sn">%
 71
     4
340
5D
 90
       25
 62
   256
340
5D
 90
       25
 62
   256
280
     0
  0
LAYOUT
  5
6F
102
{ACAD_REACTORS
330
62
102
}
330
62
100
AcDbPlotSettings
  1

  2

  4

  6

 40
0.0
 41
0.0
 42
0.0
 43
0.0
 44
0.0
 45
0.0
 46
0.0
 47
0.0
 48
0.0
 49
0.0
140
0.0
141
0.0
142
1.0
143
1.0
 70
   688
 72
     0
 73
     0
 74
     5
  7

 75
    16
147
1.0
 76
     0
 77
     2
 78
   300
148
0.0
149
0.0
100
AcDbLayout
  1
Layout1
 70
     1
 71
     1
 10
0.0
 20
0.0
 11
12.0
 21
9.0
 12
0.0
 22
0.0
 32
0.0
 14
0.0
 24
0.0
 34
0.0
 15
0.0
 25
0.0
 35
0.0
146
0.0
 13
0.0
 23
0.0
 33
0.0
 16
1.0
 26
0.0
 36
0.0
 17
0.0
 27
1.0
 37
0.0
 76
     0
330
6C
  0
LAYOUT
  5
77
102
{ACAD_REACTORS
330
62
102
}
330
62
100
AcDbPlotSettings
  1

  2

  4

  6

 40
0.0
 41
0.0
 42
0.0
 43
0.0
 44
0.0
 45
0.0
 46
0.0
 47
0.0
 48
0.0
 49
0.0
140
0.0
141
0.0
142
1.0
143
1.0
 70
   688
 72
     0
 73
     0
 74
     5
  7

 75
    16
147
1.0
 76
     0
 77
     2
 78
   300
148
0.0
149
0.0
100
AcDbLayout
  1
Layout2
 70
     1
 71
     2
 10
0.0
 20
0.0
 11
12.0
 21
9.0
 12
0.0
 22
0.0
 32
0.0
 14
0.0
 24
0.0
 34
0.0
 15
0.0
 25
0.0
 35
0.0
146
0.0
 13
0.0
 23
0.0
 33
0.0
 16
1.0
 26
0.0
 36
0.0
 17
0.0
 27
1.0
 37
0.0
 76
     0
330
74
  0
LAYOUT
  5
73
102
{ACAD_REACTORS
330
62
102
}
330
62
100
AcDbPlotSettings
  1

  2

  4

  6

 40
0.0
 41
0.0
 42
0.0
 43
0.0
 44
0.0
 45
0.0
 46
0.0
 47
0.0
 48
0.0
 49
0.0
140
0.0
141
0.0
142
1.0
143
1.0
 70
  1712
 72
     0
 73
     0
 74
     0
  7

 75
     0
147
1.0
 76
     0
 77
     2
 78
   300
148
0.0
149
0.0
100
AcDbLayout
  1
Model
 70
     1
 71
     0
 10
0.0
 20
0.0
 11
12.0
 21
9.0
 12
0.0
 22
0.0
 32
0.0
 14
0.0
 24
0.0
 34
0.0
 15
0.0
 25
0.0
 35
0.0
146
0.0
 13
0.0
 23
0.0
 33
0.0
 16
1.0
 26
0.0
 36
0.0
 17
0.0
 27
1.0
 37
0.0
 76
     0
330
70
  0
MATERIAL
  5
19
102
{ACAD_XDICTIONARY
360
1A
102
}
102
{ACAD_REACTORS
330
10
102
}
330
10
100
AcDbMaterial
  1
ByBlock
 72
     0
 43
0.0208333333333333
 43
0.0
 43
0.0
 43
0.0
 43
0.0
 43
0.0208333333333333
 43
0.0
 43
0.0
 43
0.0
 43
0.0
 43
1.0
 43
0.0
 43
0.0
 43
0.0
 43
0.0
 43
1.0
 77
     0
 47
0.0208333333333333
 47
0.0
 47
0.0
 47
0.0
 47
0.0
 47
0.0208333333333333
 47
0.0
 47
0.0
 47
0.0
 47
0.0
 47
1.0
 47
0.0
 47
0.0
 47
0.0
 47
0.0
 47
1.0
171
     0
 49
0.0208333333333333
 49
0.0
 49
0.0
 49
0.0
 49
0.0
 49
0.0208333333333333
 49
0.0
 49
0.0
 49
0.0
 49
0.0
 49
1.0
 49
0.0
 49
0.0
 49
0.0
 49
0.0
 49
1.0
175
     0
142
0.0208333333333333
142
0.0
142
0.0
142
0.0
142
0.0
142
0.0208333333333333
142
0.0
142
0.0
142
0.0
142
0.0
142
1.0
142
0.0
142
0.0
142
0.0
142
0.0
142
1.0
179
     0
144
0.0208333333333333
144
0.0
144
0.0
144
0.0
144
0.0
144
0.0208333333333333
144
0.0
144
0.0
144
0.0
144
0.0
144
1.0
144
0.0
144
0.0
144
0.0
144
0.0
144
1.0
147
0.0208333333333333
147
0.0
147
0.0
147
0.0
147
0.0
147
0.0208333333333333
147
0.0
147
0.0
147
0.0
147
0.0
147
1.0
147
0.0
147
0.0
147
0.0
147
0.0
147
1.0
  0
MATERIAL
  5
11
102
{ACAD_XDICTIONARY
360
12
102
}
102
{ACAD_REACTORS
330
10
102
}
330
10
100
AcDbMaterial
  1
ByLayer
 72
     0
 43
0.0208333333333333
 43
0.0
 43
0.0
 43
0.0
 43
0.0
 43
0.0208333333333333
 43
0.0
 43
0.0
 43
0.0
 43
0.0
 43
1.0
 43
0.0
 43
0.0
 43
0.0
 43
0.0
 43
1.0
 77
     0
 47
0.0208333333333333
 47
0.0
 47
0.0
 47
0.0
 47
0.0
 47
0.0208333333333333
 47
0.0
 47
0.0
 47
0.0
 47
0.0
 47
1.0
 47
0.0
 47
0.0
 47
0.0
 47
0.0
 47
1.0
171
     0
 49
0.0208333333333333
 49
0.0
 49
0.0
 49
0.0
 49
0.0
 49
0.0208333333333333
 49
0.0
 49
0.0
 49
0.0
 49
0.0
 49
1.0
 49
0.0
 49
0.0
 49
0.0
 49
0.0
 49
1.0
175
     0
142
0.0208333333333333
142
0.0
142
0.0
142
0.0
142
0.0
142
0.0208333333333333
142
0.0
142
0.0
142
0.0
142
0.0
142
1.0
142
0.0
142
0.0
142
0.0
142
0.0
142
1.0
179
     0
144
0.0208333333333333
144
0.0
144
0.0
144
0.0
144
0.0
144
0.0208333333333333
144
0.0
144
0.0
144
0.0
144
0.0
144
1.0
144
0.0
144
0.0
144
0.0
144
0.0
144
1.0
147
0.0208333333333333
147
0.0
147
0.0
147
0.0
147
0.0
147
0.0208333333333333
147
0.0
147
0.0
147
0.0
147
0.0
147
1.0
147
0.0
147
0.0
147
0.0
147
0.0
147
1.0
  0
MATERIAL
  5
21
102
{ACAD_XDICTIONARY
360
22
102
}
102
{ACAD_REACTORS
330
10
102
}
330
10
100
AcDbMaterial
  1
Global
 72
     0
 43
0.0208333333333333
 43
0.0
 43
0.0
 43
0.0
 43
0.0
 43
0.0208333333333333
 43
0.0
 43
0.0
 43
0.0
 43
0.0
 43
1.0
 43
0.0
 43
0.0
 43
0.0
 43
0.0
 43
1.0
 77
     0
 47
0.0208333333333333
 47
0.0
 47
0.0
 47
0.0
 47
0.0
 47
0.0208333333333333
 47
0.0
 47
0.0
 47
0.0
 47
0.0
 47
1.0
 47
0.0
 47
0.0
 47
0.0
 47
0.0
 47
1.0
171
     0
 49
0.0208333333333333
 49
0.0
 49
0.0
 49
0.0
 49
0.0
 49
0.0208333333333333
 49
0.0
 49
0.0
 49
0.0
 49
0.0
 49
1.0
 49
0.0
 49
0.0
 49
0.0
 49
0.0
 49
1.0
175
     0
142
0.0208333333333333
142
0.0
142
0.0
142
0.0
142
0.0
142
0.0208333333333333
142
0.0
142
0.0
142
0.0
142
0.0
142
1.0
142
0.0
142
0.0
142
0.0
142
0.0
142
1.0
179
     0
144
0.0208333333333333
144
0.0
144
0.0
144
0.0
144
0.0
144
0.0208333333333333
144
0.0
144
0.0
144
0.0
144
0.0
144
1.0
144
0.0
144
0.0
144
0.0
144
0.0
144
1.0
147
0.0208333333333333
147
0.0
147
0.0
147
0.0
147
0.0
147
0.0208333333333333
147
0.0
147
0.0
147
0.0
147
0.0
147
1.0
147
0.0
147
0.0
147
0.0
147
0.0
147
1.0
  0
MLEADERSTYLE
  5
67
102
{ACAD_REACTORS
330
66
102
}
330
66
100
AcDbMLeaderStyle
179
     2
170
     2
171
     1
172
     0
 90
        2
 40
0.0
 41
0.0
173
     1
 91
-1056964608
340
5B
 92
       -2
290
     1
 42
0.09
291
     1
 43
0.36
  3
Standard
 44
0.18
300

342
55
174
     1
178
     6
175
     1
176
     0
 93
-1056964608
 45
0.18
292
     0
297
     0
 46
0.18
 94
-1056964608
 47
1.0
 49
1.0
140
1.0
293
     1
141
0.0
294
     1
177
     0
142
1.0
295
     1
296
     0
143
0.125
271
     0
272
     9
273
     9
298
     1
  0
MLINESTYLE
  5
60
102
{ACAD_REACTORS
330
5F
102
}
330
5F
100
AcDbMlineStyle
  2
STANDARD
 70
     0
  3

 62
   256
 51
90.0
 52
90.0
 71
     2
 49
0.5
 62
   256
  6
BYLAYER
 49
-0.5
 62
   256
  6
BYLAYER
  0
ACDBPLACEHOLDER
  5
F
102
{ACAD_REACTORS
330
E
102
}
330
E
  0
SCALE
  5
43
102
{ACAD_REACTORS
330
42
102
}
330
42
100
AcDbScale
 70
     0
300
1:1
140
1.0
141
1.0
290
     1
  0
SCALE
  5
44
102
{ACAD_REACTORS
330
42
102
}
330
42
100
AcDbScale
 70
     0
300
1/128" = 1'-0"
140
0.0078125
141
12.0
290
     0
  0
SCALE
  5
45
102
{ACAD_REACTORS
330
42
102
}
330
42
100
AcDbScale
 70
     0
300
1/64" = 1'-0"
140
0.015625
141
12.0
290
     0
  0
SCALE
  5
46
102
{ACAD_REACTORS
330
42
102
}
330
42
100
AcDbScale
 70
     0
300
1/32" = 1'-0"
140
0.03125
141
12.0
290
     0
  0
SCALE
  5
47
102
{ACAD_REACTORS
330
42
102
}
330
42
100
AcDbScale
 70
     0
300
1/16" = 1'-0"
140
0.0625
141
12.0
290
     0
  0
SCALE
  5
48
102
{ACAD_REACTORS
330
42
102
}
330
42
100
AcDbScale
 70
     0
300
3/32" = 1'-0"
140
0.09375
141
12.0
290
     0
  0
SCALE
  5
49
102
{ACAD_REACTORS
330
42
102
}
330
42
100
AcDbScale
 70
     0
300
1/8" = 1'-0"
140
0.125
141
12.0
290
     0
  0
SCALE
  5
4A
102
{ACAD_REACTORS
330
42
102
}
330
42
100
AcDbScale
 70
     0
300
3/16" = 1'-0"
140
0.1875
141
12.0
290
     0
  0
SCALE
  5
4B
102
{ACAD_REACTORS
330
42
102
}
330
42
100
AcDbScale
 70
     0
300
1/4" = 1'-0"
140
0.25
141
12.0
290
     0
  0
SCALE
  5
4C
102
{ACAD_REACTORS
330
42
102
}
330
42
100
AcDbScale
 70
     0
300
3/8" = 1'-0"
140
0.375
141
12.0
290
     0
  0
SCALE
  5
4D
102
{ACAD_REACTORS
330
42
102
}
330
42
100
AcDbScale
 70
     0
300
1/2" = 1'-0"
140
0.5
141
12.0
290
     0
  0
SCALE
  5
4E
102
{ACAD_REACTORS
330
42
102
}
330
42
100
AcDbScale
 70
     0
300
3/4" = 1'-0"
140
0.75
141
12.0
290
     0
  0
SCALE
  5
4F
102
{ACAD_REACTORS
330
42
102
}
330
42
100
AcDbScale
 70
     0
300
1" = 1'-0"
140
1.0
141
12.0
290
     0
  0
SCALE
  5
50
102
{ACAD_REACTORS
330
42
102
}
330
42
100
AcDbScale
 70
     0
300
1-1/2" = 1'-0"
140
1.5
141
12.0
290
     0
  0
SCALE
  5
51
102
{ACAD_REACTORS
330
42
102
}
330
42
100
AcDbScale
 70
     0
300
3" = 1'-0"
140
3.0
141
12.0
290
     0
  0
SCALE
  5
52
102
{ACAD_REACTORS
330
42
102
}
330
42
100
AcDbScale
 70
     0
300
6" = 1'-0"
140
6.0
141
12.0
290
     0
  0
SCALE
  5
53
102
{ACAD_REACTORS
330
42
102
}
330
42
100
AcDbScale
 70
     0
300
1'-0" = 1'-0"
140
12.0
141
12.0
290
     0
  0
ACDBSECTIONVIEWSTYLE
  5
69
102
{ACAD_REACTORS
330
68
102
}
330
68
100
AcDbModelDocViewStyle
 70
     0
  3
Imperial24
290
     1
300
Imperial24
 90
        0
100
AcDbSectionViewStyle
 70
     0
 71
     0
 90
       78
 71
     1
340
55
 62
   256
 40
0.24
340
0
340
0
 62
   256
 40
0.24
300
I, O, Q, S, X, Z
 40
0.48
 90
        3
 40
0.18
 90
        1
 71
     2
340
5D
 90
       25
 62
   256
340
5D
 90
       50
 62
   256
 40
0.24
 40
0.0
 40
0.24
 71
     3
340
55
 62
   256
 40
0.24
 90
        1
 40
0.75
 90
        1
300
%<\AcVar ViewType \f "%tc1">% %<\AcVar ViewSectionStartId>%-%<\AcVar ViewSectionEndId>%\PSCALE %<\AcVar ViewScale \f "%sn">%
 71
     4
 62
   256
 62
   257
300
ANSI31
 40
1.0
 90
        0
290
     0
290
     0
 90
        6
 40
0.0
 40
1.570796326794896
 40
0.2617993877991494
 40
1.308996938995747
 40
-0.2617993877991494
 40
1.832595714594046
  0
TABLESTYLE
  5
65
102
{ACAD_XDICTIONARY
360
9C
102
}
102
{ACAD_REACTORS
330
64
102
}
330
64
100
AcDbTableStyle
280
     0
  3
Standard
 70
     0
 71
     0
 40
0.06
 41
0.06
280
     0
281
     0
  7
Standard
140
0.18
170
     2
 62
     0
 63
     7
283
     0
 90
      512
 91
        0
  1

274
    -2
284
     1
 64
     0
275
    -2
285
     1
 65
     0
276
    -2
286
     1
 66
     0
277
    -2
287
     1
 67
     0
278
    -2
288
     1
 68
     0
279
    -2
289
     1
 69
     0
  7
Standard
140
0.25
170
     5
 62
     0
 63
     7
283
     0
 90
      512
 91
        0
  1

274
    -2
284
     1
 64
     0
275
    -2
285
     1
 65
     0
276
    -2
286
     1
 66
     0
277
    -2
287
     1
 67
     0
278
    -2
288
     1
 68
     0
279
    -2
289
     1
 69
     0
  7
Standard
140
0.18
170
     5
 62
     0
 63
     7
283
     0
 90
      512
 91
        0
  1

274
    -2
284
     1
 64
     0
275
    -2
285
     1
 65
     0
276
    -2
286
     1
 66
     0
277
    -2
287
     1
 67
     0
278
    -2
288
     1
 68
     0
279
    -2
289
     1
 69
     0
  0
VISUALSTYLE
  5
2F
102
{ACAD_REACTORS
330
29
102
}
330
29
100
AcDbVisualStyle
  2
2dWireframe
 70
     4
177
     3
291
     0
 70
    58
 90
        0
176
     1
 90
        2
176
     1
 90
        0
176
     1
 90
        0
176
     1
 40
0.6
176
     1
 40
30.0
176
     1
 62
     7
420
 16777215
176
     1
 90
        1
176
     1
 90
        4
176
     1
 62
     7
176
     1
 62
   257
176
     1
 90
        1
176
     1
 90
        1
176
     1
 40
1.0
176
     1
 90
        0
176
     1
 62
   257
176
     1
 40
1.0
176
     1
 90
        1
176
     1
 90
        6
176
     1
 90
        2
176
     1
 62
     7
176
     1
 90
        5
176
     1
 90
        0
176
     1
 90
        0
176
     1
290
     0
176
     1
 90
        1
176
     1
 40
0.0
176
     1
 90
        0
176
     1
290
     1
176
     1
290
     1
176
     1
290
     0
176
     1
290
     0
176
     1
290
     0
176
     1
290
     0
176
     1
290
     0
176
     1
290
     0
176
     1
290
     0
176
     1
 90
       50
176
     1
 40
0.0
176
     1
 40
1.0
176
     1
 90
        0
176
     1
 62
    18
420
        0
176
     1
 90
       50
176
     1
 90
        3
176
     1
 62
     5
420
      255
176
     1
290
     0
176
     1
 90
       50
176
     1
 90
       50
176
     1
 90
       50
176
     1
290
     0
176
     1
 90
       50
176
     1
 62
   256
176
     0
 40
1.0
176
     0
 90
        2
176
     1
  1
strokes_ogs.tif
176
     1
290
     0
176
     1
 40
1.0
176
     1
 40
1.0
176
     1
  0
VISUALSTYLE
  5
2E
102
{ACAD_REACTORS
330
29
102
}
330
29
100
AcDbVisualStyle
  2
Basic
 70
     7
177
     3
291
     1
 70
    58
 90
        1
176
     1
 90
        0
176
     1
 90
        1
176
     1
 90
        0
176
     1
 40
0.6
176
     1
 40
30.0
176
     1
 62
     7
420
 16777215
176
     1
 90
        0
176
     1
 90
        4
176
     1
 62
     7
176
     1
 62
   257
176
     1
 90
        1
176
     1
 90
        1
176
     1
 40
1.0
176
     1
 90
        8
176
     1
 62
     7
176
     1
 40
1.0
176
     1
 90
        1
176
     1
 90
        6
176
     1
 90
        2
176
     1
 62
     7
176
     1
 90
        5
176
     1
 90
        0
176
     1
 90
        0
176
     1
290
     0
176
     1
 90
        1
176
     1
 40
0.0
176
     1
 90
        0
176
     1
290
     0
176
     1
290
     1
176
     1
290
     1
176
     1
290
     0
176
     1
290
     0
176
     1
290
     0
176
     1
290
     0
176
     1
290
     0
176
     1
290
     0
176
     1
 90
       50
176
     1
 40
0.0
176
     1
 40
1.0
176
     1
 90
        0
176
     1
 62
    18
420
        0
176
     1
 90
       50
176
     1
 90
        3
176
     1
 62
     5
420
      255
176
     1
290
     0
176
     1
 90
       50
176
     1
 90
       50
176
     1
 90
       50
176
     1
290
     0
176
     1
 90
       50
176
     1
 62
   256
176
     0
 40
1.0
176
     0
 90
        2
176
     1
  1
strokes_ogs.tif
176
     1
290
     0
176
     1
 40
1.0
176
     1
 40
1.0
176
     1
  0
VISUALSTYLE
  5
35
102
{ACAD_REACTORS
330
29
102
}
330
29
100
AcDbVisualStyle
  2
Brighten
 70
    12
177
     3
291
     1
 70
    58
 90
        2
176
     1
 90
        2
176
     1
 90
        0
176
     1
 90
        0
176
     1
 40
0.6
176
     1
 40
30.0
176
     1
 62
     7
420
 16777215
176
     1
 90
        1
176
     1
 90
        4
176
     1
 62
     7
176
     1
 62
   257
176
     1
 90
        1
176
     1
 90
        1
176
     1
 40
1.0
176
     1
 90
        8
176
     1
 62
     7
176
     1
 40
1.0
176
     1
 90
        1
176
     1
 90
        6
176
     1
 90
        2
176
     1
 62
     7
176
     1
 90
        5
176
     1
 90
        0
176
     1
 90
        0
176
     1
290
     0
176
     1
 90
        1
176
     1
 40
50.0
176
     1
 90
        0
176
     1
290
     0
176
     1
290
     1
176
     1
290
     1
176
     1
290
     0
176
     1
290
     0
176
     1
290
     0
176
     1
290
     0
176
     1
290
     0
176
     1
290
     0
176
     1
 90
       50
176
     1
 40
0.0
176
     1
 40
1.0
176
     1
 90
        0
176
     1
 62
    18
420
        0
176
     1
 90
       50
176
     1
 90
        3
176
     1
 62
     5
420
      255
176
     1
290
     0
176
     1
 90
       50
176
     1
 90
       50
176
     1
 90
       50
176
     1
290
     0
176
     1
 90
       50
176
     1
 62
   256
176
     0
 40
1.0
176
     0
 90
        2
176
     1
  1
strokes_ogs.tif
176
     1
290
     0
176
     1
 40
1.0
176
     1
 40
1.0
176
     1
  0
VISUALSTYLE
  5
39
102
{ACAD_REACTORS
330
29
102
}
330
29
100
AcDbVisualStyle
  2
ColorChange
 70
    16
177
     3
291
     1
 70
    58
 90
        2
176
     1
 90
        2
176
     1
 90
        3
176
     1
 90
        0
176
     1
 40
0.6
176
     1
 40
30.0
176
     1
 62
     8
420
  8421504
176
     1
 90
        1
176
     1
 90
        4
176
     1
 62
     7
176
     1
 62
   257
176
     1
 90
        1
176
     1
 90
        1
176
     1
 40
1.0
176
     1
 90
        8
176
     1
 62
     8
420
  8421504
176
     1
 40
1.0
176
     1
 90
        1
176
     1
 90
        6
176
     1
 90
        2
176
     1
 62
     7
176
     1
 90
        5
176
     1
 90
        0
176
     1
 90
        0
176
     1
290
     0
176
     1
 90
        1
176
     1
 40
0.0
176
     1
 90
        0
176
     1
290
     0
176
     1
290
     1
176
     1
290
     1
176
     1
290
     0
176
     1
290
     0
176
     1
290
     0
176
     1
290
     0
176
     1
290
     0
176
     1
290
     0
176
     1
 90
       50
176
     1
 40
0.0
176
     1
 40
1.0
176
     1
 90
        0
176
     1
 62
    18
420
        0
176
     1
 90
       50
176
     1
 90
        3
176
     1
 62
     5
420
      255
176
     1
290
     0
176
     1
 90
       50
176
     1
 90
       50
176
     1
 90
       50
176
     1
290
     0
176
     1
 90
       50
176
     1
 62
   256
176
     0
 40
1.0
176
     0
 90
        2
176
     1
  1
strokes_ogs.tif
176
     1
290
     0
176
     1
 40
1.0
176
     1
 40
1.0
176
     1
  0
VISUALSTYLE
  5
32
102
{ACAD_REACTORS
330
29
102
}
330
29
100
AcDbVisualStyle
  2
Conceptual
 70
     9
177
     3
291
     0
 70
    58
 90
        3
176
     1
 90
        2
176
     1
 90
        0
176
     1
 90
        0
176
     1
 40
0.6
176
     1
 40
30.0
176
     1
 62
     7
420
 16777215
176
     1
 90
        2
176
     1
 90
        2
176
     1
 62
     7
176
     1
 62
   257
176
     1
 90
        1
176
     1
 90
        1
176
     1
 40
179.0
176
     1
 90
        8
176
     1
 62
     7
176
     1
 40
1.0
176
     1
 90
        1
176
     1
 90
        6
176
     1
 90
        2
176
     1
 62
     7
176
     1
 90
        3
176
     1
 90
        0
176
     1
 90
        0
176
     1
290
     0
176
     1
 90
        1
176
     1
 40
0.0
176
     1
 90
        0
176
     1
290
     0
176
     1
290
     1
176
     1
290
     1
176
     1
290
     0
176
     1
290
     0
176
     1
290
     0
176
     1
290
     0
176
     1
290
     0
176
     1
290
     0
176
     1
 90
       50
176
     1
 40
0.0
176
     1
 40
1.0
176
     1
 90
        0
176
     1
 62
    18
420
        0
176
     1
 90
       50
176
     1
 90
        3
176
     1
 62
     5
420
      255
176
     1
290
     0
176
     1
 90
       50
176
     1
 90
       50
176
     1
 90
       50
176
     1
290
     0
176
     1
 90
       50
176
     1
 62
   256
176
     0
 40
1.0
176
     0
 90
        2
176
     1
  1
strokes_ogs.tif
176
     1
290
     0
176
     1
 40
1.0
176
     1
 40
1.0
176
     1
  0
VISUALSTYLE
  5
34
102
{ACAD_REACTORS
330
29
102
}
330
29
100
AcDbVisualStyle
  2
Dim
 70
    11
177
     3
291
     1
 70
    58
 90
        2
176
     1
 90
        2
176
     1
 90
        0
176
     1
 90
        0
176
     1
 40
0.6
176
     1
 40
30.0
176
     1
 62
     7
420
 16777215
176
     1
 90
        1
176
     1
 90
        4
176
     1
 62
     7
176
     1
 62
   257
176
     1
 90
        1
176
     1
 90
        1
176
     1
 40
1.0
176
     1
 90
        8
176
     1
 62
     7
176
     1
 40
1.0
176
     1
 90
        1
176
     1
 90
        6
176
     1
 90
        2
176
     1
 62
     7
176
     1
 90
        5
176
     1
 90
        0
176
     1
 90
        0
176
     1
290
     0
176
     1
 90
        1
176
     1
 40
-50.0
176
     1
 90
        0
176
     1
290
     0
176
     1
290
     1
176
     1
290
     1
176
     1
290
     0
176
     1
290
     0
176
     1
290
     0
176
     1
290
     0
176
     1
290
     0
176
     1
290
     0
176
     1
 90
       50
176
     1
 40
0.0
176
     1
 40
1.0
176
     1
 90
        0
176
     1
 62
    18
420
        0
176
     1
 90
       50
176
     1
 90
        3
176
     1
 62
     5
420
      255
176
     1
290
     0
176
     1
 90
       50
176
     1
 90
       50
176
     1
 90
       50
176
     1
290
     0
176
     1
 90
       50
176
     1
 62
   256
176
     0
 40
1.0
176
     0
 90
        2
176
     1
  1
strokes_ogs.tif
176
     1
290
     0
176
     1
 40
1.0
176
     1
 40
1.0
176
     1
  0
VISUALSTYLE
  5
41
102
{ACAD_REACTORS
330
29
102
}
330
29
100
AcDbVisualStyle
  2
EdgeColorOff
 70
    22
177
     3
291
     1
 70
    58
 90
        2
176
     0
 90
        2
176
     0
 90
        0
176
     0
 90
        0
176
     0
 40
0.6
176
     0
 40
30.0
176
     0
 62
     7
420
 16777215
176
     0
 90
        1
176
     0
 90
        4
176
     0
 62
     7
176
     0
 62
   257
176
     0
 90
        1
176
     0
 90
        1
176
     0
 40
1.0
176
     0
 90
        8
176
     2
 62
     7
176
     0
 40
1.0
176
     0
 90
        1
176
     0
 90
        6
176
     0
 90
        2
176
     0
 62
     7
176
     0
 90
        5
176
     0
 90
        0
176
     0
 90
        0
176
     0
290
     0
176
     0
 90
        1
176
     0
 40
0.0
176
     0
 90
        0
176
     0
290
     0
176
     0
290
     1
176
     0
290
     1
176
     0
290
     0
176
     0
290
     0
176
     0
290
     0
176
     0
290
     0
176
     0
290
     0
176
     0
290
     0
176
     0
 90
       50
176
     0
 40
0.0
176
     0
 40
1.0
176
     0
 90
        0
176
     0
 62
    18
420
        0
176
     0
 90
       50
176
     0
 90
        3
176
     0
 62
     5
420
      255
176
     0
290
     0
176
     0
 90
       50
176
     0
 90
       50
176
     0
 90
       50
176
     0
290
     0
176
     0
 90
       50
176
     0
 62
   256
176
     0
 40
1.0
176
     0
 90
        2
176
     0
  1
strokes_ogs.tif
176
     0
290
     0
176
     0
 40
1.0
176
     0
 40
1.0
176
     0
  0
VISUALSTYLE
  5
38
102
{ACAD_REACTORS
330
29
102
}
330
29
100
AcDbVisualStyle
  2
Facepattern
 70
    15
177
     3
291
     1
 70
    58
 90
        2
176
     1
 90
        2
176
     1
 90
        0
176
     1
 90
        0
176
     1
 40
0.6
176
     1
 40
30.0
176
     1
 62
     7
420
 16777215
176
     1
 90
        1
176
     1
 90
        4
176
     1
 62
     7
176
     1
 62
   257
176
     1
 90
        1
176
     1
 90
        1
176
     1
 40
1.0
176
     1
 90
        8
176
     1
 62
     7
176
     1
 40
1.0
176
     1
 90
        1
176
     1
 90
        6
176
     1
 90
        2
176
     1
 62
     7
176
     1
 90
        5
176
     1
 90
        0
176
     1
 90
        0
176
     1
290
     0
176
     1
 90
        1
176
     1
 40
0.0
176
     1
 90
        0
176
     1
290
     0
176
     1
290
     1
176
     1
290
     1
176
     1
290
     0
176
     1
290
     0
176
     1
290
     0
176
     1
290
     0
176
     1
290
     0
176
     1
290
     0
176
     1
 90
       50
176
     1
 40
0.0
176
     1
 40
1.0
176
     1
 90
        0
176
     1
 62
    18
420
        0
176
     1
 90
       50
176
     1
 90
        3
176
     1
 62
     5
420
      255
176
     1
290
     0
176
     1
 90
       50
176
     1
 90
       50
176
     1
 90
       50
176
     1
290
     0
176
     1
 90
       50
176
     1
 62
   256
176
     0
 40
1.0
176
     0
 90
        2
176
     1
  1
strokes_ogs.tif
176
     1
290
     0
176
     1
 40
1.0
176
     1
 40
1.0
176
     1
  0
VISUALSTYLE
  5
2A
102
{ACAD_REACTORS
330
29
102
}
330
29
100
AcDbVisualStyle
  2
Flat
 70
     0
177
     3
291
     1
 70
    58
 90
        2
176
     1
 90
        1
176
     1
 90
        1
176
     1
 90
        2
176
     1
 40
0.6
176
     1
 40
30.0
176
     1
 62
     7
420
 16777215
176
     1
 90
        0
176
     1
 90
        0
176
     1
 62
     7
176
     1
 62
   257
176
     1
 90
        1
176
     1
 90
        1
176
     1
 40
1.0
176
     1
 90
        8
176
     1
 62
     7
176
     1
 40
1.0
176
     1
 90
        1
176
     1
 90
        6
176
     1
 90
        2
176
     1
 62
     7
176
     1
 90
        5
176
     1
 90
        0
176
     1
 90
        0
176
     1
290
     0
176
     1
 90
       13
176
     1
 40
0.0
176
     1
 90
        0
176
     1
290
     0
176
     1
290
     1
176
     1
290
     1
176
     1
290
     0
176
     1
290
     0
176
     1
290
     0
176
     1
290
     0
176
     1
290
     0
176
     1
290
     0
176
     1
 90
       50
176
     1
 40
0.0
176
     1
 40
1.0
176
     1
 90
        0
176
     1
 62
    18
420
        0
176
     1
 90
       50
176
     1
 90
        3
176
     1
 62
     5
420
      255
176
     1
290
     0
176
     1
 90
       50
176
     1
 90
       50
176
     1
 90
       50
176
     1
290
     0
176
     1
 90
       50
176
     1
 62
   256
176
     0
 40
1.0
176
     0
 90
        2
176
     1
  1
strokes_ogs.tif
176
     1
290
     0
176
     1
 40
1.0
176
     1
 40
1.0
176
     1
  0
VISUALSTYLE
  5
2B
102
{ACAD_REACTORS
330
29
102
}
330
29
100
AcDbVisualStyle
  2
FlatWithEdges
 70
     1
177
     3
291
     1
 70
    58
 90
        2
176
     1
 90
        1
176
     1
 90
        1
176
     1
 90
        2
176
     1
 40
0.6
176
     1
 40
30.0
176
     1
 62
     7
420
 16777215
176
     1
 90
        1
176
     1
 90
        0
176
     1
 62
     7
176
     1
 62
   257
176
     1
 90
        1
176
     1
 90
        1
176
     1
 40
1.0
176
     1
 90
        0
176
     1
 62
   257
176
     1
 40
1.0
176
     1
 90
        1
176
     1
 90
        6
176
     1
 90
        2
176
     1
 62
     7
176
     1
 90
        5
176
     1
 90
        0
176
     1
 90
        0
176
     1
290
     0
176
     1
 90
       13
176
     1
 40
0.0
176
     1
 90
        0
176
     1
290
     0
176
     1
290
     1
176
     1
290
     1
176
     1
290
     0
176
     1
290
     0
176
     1
290
     0
176
     1
290
     0
176
     1
290
     0
176
     1
290
     0
176
     1
 90
       50
176
     1
 40
0.0
176
     1
 40
1.0
176
     1
 90
        0
176
     1
 62
    18
420
        0
176
     1
 90
       50
176
     1
 90
        3
176
     1
 62
     5
420
      255
176
     1
290
     0
176
     1
 90
       50
176
     1
 90
       50
176
     1
 90
       50
176
     1
290
     0
176
     1
 90
       50
176
     1
 62
   256
176
     0
 40
1.0
176
     0
 90
        2
176
     1
  1
strokes_ogs.tif
176
     1
290
     0
176
     1
 40
1.0
176
     1
 40
1.0
176
     1
  0
VISUALSTYLE
  5
2C
102
{ACAD_REACTORS
330
29
102
}
330
29
100
AcDbVisualStyle
  2
Gouraud
 70
     2
177
     3
291
     1
 70
    58
 90
        2
176
     1
 90
        2
176
     1
 90
        1
176
     1
 90
        2
176
     1
 40
0.6
176
     1
 40
30.0
176
     1
 62
     7
420
 16777215
176
     1
 90
        0
176
     1
 90
        0
176
     1
 62
     7
176
     1
 62
   257
176
     1
 90
        1
176
     1
 90
        1
176
     1
 40
1.0
176
     1
 90
        0
176
     1
 62
     7
176
     1
 40
1.0
176
     1
 90
        1
176
     1
 90
        6
176
     1
 90
        2
176
     1
 62
     7
176
     1
 90
        5
176
     1
 90
        0
176
     1
 90
        0
176
     1
290
     0
176
     1
 90
       13
176
     1
 40
0.0
176
     1
 90
        0
176
     1
290
     0
176
     1
290
     1
176
     1
290
     1
176
     1
290
     0
176
     1
290
     0
176
     1
290
     0
176
     1
290
     0
176
     1
290
     0
176
     1
290
     0
176
     1
 90
       50
176
     1
 40
0.0
176
     1
 40
1.0
176
     1
 90
        0
176
     1
 62
    18
420
        0
176
     1
 90
       50
176
     1
 90
        3
176
     1
 62
     5
420
      255
176
     1
290
     0
176
     1
 90
       50
176
     1
 90
       50
176
     1
 90
       50
176
     1
290
     0
176
     1
 90
       50
176
     1
 62
   256
176
     0
 40
1.0
176
     0
 90
        2
176
     1
  1
strokes_ogs.tif
176
     1
290
     0
176
     1
 40
1.0
176
     1
 40
1.0
176
     1
  0
VISUALSTYLE
  5
2D
102
{ACAD_REACTORS
330
29
102
}
330
29
100
AcDbVisualStyle
  2
GouraudWithEdges
 70
     3
177
     3
291
     1
 70
    58
 90
        2
176
     1
 90
        2
176
     1
 90
        1
176
     1
 90
        2
176
     1
 40
0.6
176
     1
 40
30.0
176
     1
 62
     7
420
 16777215
176
     1
 90
        1
176
     1
 90
        0
176
     1
 62
     7
176
     1
 62
   257
176
     1
 90
        1
176
     1
 90
        1
176
     1
 40
1.0
176
     1
 90
        0
176
     1
 62
   257
176
     1
 40
1.0
176
     1
 90
        1
176
     1
 90
        6
176
     1
 90
        2
176
     1
 62
     7
176
     1
 90
        5
176
     1
 90
        0
176
     1
 90
        0
176
     1
290
     0
176
     1
 90
       13
176
     1
 40
0.0
176
     1
 90
        0
176
     1
290
     0
176
     1
290
     1
176
     1
290
     1
176
     1
290
     0
176
     1
290
     0
176
     1
290
     0
176
     1
290
     0
176
     1
290
     0
176
     1
290
     0
176
     1
 90
       50
176
     1
 40
0.0
176
     1
 40
1.0
176
     1
 90
        0
176
     1
 62
    18
420
        0
176
     1
 90
       50
176
     1
 90
        3
176
     1
 62
     5
420
      255
176
     1
290
     0
176
     1
 90
       50
176
     1
 90
       50
176
     1
 90
       50
176
     1
290
     0
176
     1
 90
       50
176
     1
 62
   256
176
     0
 40
1.0
176
     0
 90
        2
176
     1
  1
strokes_ogs.tif
176
     1
290
     0
176
     1
 40
1.0
176
     1
 40
1.0
176
     1
  0
VISUALSTYLE
  5
31
102
{ACAD_REACTORS
330
29
102
}
330
29
100
AcDbVisualStyle
  2
Hidden
 70
     6
177
     3
291
     0
 70
    58
 90
        1
176
     1
 90
        2
176
     1
 90
        2
176
     1
 90
        0
176
     1
 40
0.6
176
     1
 40
30.0
176
     1
 62
     7
420
 16777215
176
     1
 90
        2
176
     1
 90
        2
176
     1
 62
     7
176
     1
 62
   257
176
     1
 90
        2
176
     1
 90
        1
176
     1
 40
40.0
176
     1
 90
        0
176
     1
 62
   257
176
     1
 40
1.0
176
     1
 90
        1
176
     1
 90
        6
176
     1
 90
        2
176
     1
 62
     7
176
     1
 90
        3
176
     1
 90
        0
176
     1
 90
        0
176
     1
290
     0
176
     1
 90
        1
176
     1
 40
0.0
176
     1
 90
        0
176
     1
290
     0
176
     1
290
     1
176
     1
290
     1
176
     1
290
     0
176
     1
290
     0
176
     1
290
     0
176
     1
290
     0
176
     1
290
     0
176
     1
290
     0
176
     1
 90
       50
176
     1
 40
0.0
176
     1
 40
1.0
176
     1
 90
        0
176
     1
 62
    18
420
        0
176
     1
 90
       50
176
     1
 90
        3
176
     1
 62
     5
420
      255
176
     1
290
     0
176
     1
 90
       50
176
     1
 90
       50
176
     1
 90
       50
176
     1
290
     0
176
     1
 90
       50
176
     1
 62
   256
176
     0
 40
1.0
176
     0
 90
        2
176
     1
  1
strokes_ogs.tif
176
     1
290
     0
176
     1
 40
1.0
176
     1
 40
1.0
176
     1
  0
VISUALSTYLE
  5
3F
102
{ACAD_REACTORS
330
29
102
}
330
29
100
AcDbVisualStyle
  2
JitterOff
 70
    20
177
     3
291
     1
 70
    58
 90
        2
176
     0
 90
        2
176
     0
 90
        0
176
     0
 90
        0
176
     0
 40
0.6
176
     0
 40
30.0
176
     0
 62
     7
420
 16777215
176
     0
 90
        1
176
     0
 90
        4
176
     0
 62
     7
176
     0
 62
   257
176
     0
 90
        1
176
     0
 90
        1
176
     0
 40
1.0
176
     0
 90
       10
176
     2
 62
     7
176
     0
 40
1.0
176
     0
 90
        1
176
     0
 90
        6
176
     0
 90
        2
176
     0
 62
     7
176
     0
 90
        5
176
     0
 90
        0
176
     0
 90
        0
176
     0
290
     0
176
     0
 90
        1
176
     0
 40
0.0
176
     0
 90
        0
176
     0
290
     0
176
     0
290
     1
176
     0
290
     1
176
     0
290
     0
176
     0
290
     0
176
     0
290
     0
176
     0
290
     0
176
     0
290
     0
176
     0
290
     0
176
     0
 90
       50
176
     0
 40
0.0
176
     0
 40
1.0
176
     0
 90
        0
176
     0
 62
    18
420
        0
176
     0
 90
       50
176
     0
 90
        3
176
     0
 62
     5
420
      255
176
     0
290
     0
176
     0
 90
       50
176
     0
 90
       50
176
     0
 90
       50
176
     0
290
     0
176
     0
 90
       50
176
     0
 62
   256
176
     0
 40
1.0
176
     0
 90
        2
176
     0
  1
strokes_ogs.tif
176
     0
290
     0
176
     0
 40
1.0
176
     0
 40
1.0
176
     0
  0
VISUALSTYLE
  5
37
102
{ACAD_REACTORS
330
29
102
}
330
29
100
AcDbVisualStyle
  2
Linepattern
 70
    14
177
     3
291
     1
 70
    58
 90
        2
176
     1
 90
        2
176
     1
 90
        0
176
     1
 90
        0
176
     1
 40
0.6
176
     1
 40
30.0
176
     1
 62
     7
420
 16777215
176
     1
 90
        1
176
     1
 90
        4
176
     1
 62
     7
176
     1
 62
   257
176
     1
 90
        7
176
     1
 90
        7
176
     1
 40
1.0
176
     1
 90
        8
176
     1
 62
     7
176
     1
 40
1.0
176
     1
 90
        1
176
     1
 90
        6
176
     1
 90
        2
176
     1
 62
     7
176
     1
 90
        5
176
     1
 90
        0
176
     1
 90
        0
176
     1
290
     0
176
     1
 90
        1
176
     1
 40
0.0
176
     1
 90
        0
176
     1
290
     0
176
     1
290
     1
176
     1
290
     1
176
     1
290
     0
176
     1
290
     0
176
     1
290
     0
176
     1
290
     0
176
     1
290
     0
176
     1
290
     0
176
     1
 90
       50
176
     1
 40
0.0
176
     1
 40
1.0
176
     1
 90
        0
176
     1
 62
    18
420
        0
176
     1
 90
       50
176
     1
 90
        3
176
     1
 62
     5
420
      255
176
     1
290
     0
176
     1
 90
       50
176
     1
 90
       50
176
     1
 90
       50
176
     1
290
     0
176
     1
 90
       50
176
     1
 62
   256
176
     0
 40
1.0
176
     0
 90
        2
176
     1
  1
strokes_ogs.tif
176
     1
290
     0
176
     1
 40
1.0
176
     1
 40
1.0
176
     1
  0
VISUALSTYLE
  5
40
102
{ACAD_REACTORS
330
29
102
}
330
29
100
AcDbVisualStyle
  2
OverhangOff
 70
    21
177
     3
291
     1
 70
    58
 90
        2
176
     0
 90
        2
176
     0
 90
        0
176
     0
 90
        0
176
     0
 40
0.6
176
     0
 40
30.0
176
     0
 62
     7
420
 16777215
176
     0
 90
        1
176
     0
 90
        4
176
     0
 62
     7
176
     0
 62
   257
176
     0
 90
        1
176
     0
 90
        1
176
     0
 40
1.0
176
     0
 90
        9
176
     2
 62
     7
176
     0
 40
1.0
176
     0
 90
        1
176
     0
 90
        6
176
     0
 90
        2
176
     0
 62
     7
176
     0
 90
        5
176
     0
 90
        0
176
     0
 90
        0
176
     0
290
     0
176
     0
 90
        1
176
     0
 40
0.0
176
     0
 90
        0
176
     0
290
     0
176
     0
290
     1
176
     0
290
     1
176
     0
290
     0
176
     0
290
     0
176
     0
290
     0
176
     0
290
     0
176
     0
290
     0
176
     0
290
     0
176
     0
 90
       50
176
     0
 40
0.0
176
     0
 40
1.0
176
     0
 90
        0
176
     0
 62
    18
420
        0
176
     0
 90
       50
176
     0
 90
        3
176
     0
 62
     5
420
      255
176
     0
290
     0
176
     0
 90
       50
176
     0
 90
       50
176
     0
 90
       50
176
     0
290
     0
176
     0
 90
       50
176
     0
 62
   256
176
     0
 40
1.0
176
     0
 90
        2
176
     0
  1
strokes_ogs.tif
176
     0
290
     0
176
     0
 40
1.0
176
     0
 40
1.0
176
     0
  0
VISUALSTYLE
  5
33
102
{ACAD_REACTORS
330
29
102
}
330
29
100
AcDbVisualStyle
  2
Realistic
 70
     8
177
     3
291
     0
 70
    58
 90
        2
176
     1
 90
        3
176
     1
 90
        0
176
     1
 90
        2
176
     1
 40
0.6
176
     1
 40
30.0
176
     1
 62
     7
420
 16777215
176
     1
 90
        0
176
     1
 90
        0
176
     1
 62
     7
176
     1
 62
   257
176
     1
 90
        1
176
     1
 90
        1
176
     1
 40
1.0
176
     1
 90
        8
176
     1
 62
   257
176
     1
 40
1.0
176
     1
 90
        1
176
     1
 90
        6
176
     1
 90
        2
176
     1
 62
     7
176
     1
 90
        3
176
     1
 90
        0
176
     1
 90
        0
176
     1
290
     0
176
     1
 90
       13
176
     1
 40
0.0
176
     1
 90
        0
176
     1
290
     0
176
     1
290
     1
176
     1
290
     1
176
     1
290
     0
176
     1
290
     0
176
     1
290
     0
176
     1
290
     0
176
     1
290
     0
176
     1
290
     0
176
     1
 90
       50
176
     1
 40
0.0
176
     1
 40
1.0
176
     1
 90
        0
176
     1
 62
    18
420
        0
176
     1
 90
       50
176
     1
 90
        3
176
     1
 62
     5
420
      255
176
     1
290
     0
176
     1
 90
       50
176
     1
 90
       50
176
     1
 90
       50
176
     1
290
     0
176
     1
 90
       50
176
     1
 62
   256
176
     0
 40
1.0
176
     0
 90
        2
176
     1
  1
strokes_ogs.tif
176
     1
290
     0
176
     1
 40
1.0
176
     1
 40
1.0
176
     1
  0
VISUALSTYLE
  5
3E
102
{ACAD_REACTORS
330
29
102
}
330
29
100
AcDbVisualStyle
  2
Shaded
 70
    27
177
     3
291
     0
 70
    58
 90
        2
176
     1
 90
        2
176
     1
 90
        1
176
     1
 90
        2
176
     1
 40
0.6
176
     1
 40
30.0
176
     1
 62
     7
420
 16777215
176
     1
 90
        0
176
     1
 90
        4
176
     1
 62
     7
176
     1
 62
   257
176
     1
 90
        1
176
     1
 90
        1
176
     1
 40
1.0
176
     1
 90
        8
176
     1
 62
   257
176
     1
 40
1.0
176
     1
 90
        1
176
     1
 90
        6
176
     1
 90
        2
176
     1
 62
     8
420
  7895160
176
     1
 90
        3
176
     1
 90
        0
176
     1
 90
        0
176
     1
290
     0
176
     1
 90
        5
176
     1
 40
0.0
176
     1
 90
        0
176
     1
290
     0
176
     1
290
     1
176
     1
290
     1
176
     1
290
     0
176
     1
290
     0
176
     1
290
     0
176
     1
290
     0
176
     1
290
     0
176
     1
290
     0
176
     1
 90
       50
176
     1
 40
0.0
176
     1
 40
1.0
176
     1
 90
        0
176
     1
 62
    18
420
        0
176
     1
 90
       50
176
     1
 90
        3
176
     1
 62
     5
420
      255
176
     1
290
     0
176
     1
 90
       50
176
     1
 90
       50
176
     1
 90
       50
176
     1
290
     0
176
     1
 90
       50
176
     1
 62
   256
176
     0
 40
1.0
176
     0
 90
        2
176
     1
  1
strokes_ogs.tif
176
     1
290
     0
176
     1
 40
1.0
176
     1
 40
1.0
176
     1
  0
VISUALSTYLE
  5
3D
102
{ACAD_REACTORS
330
29
102
}
330
29
100
AcDbVisualStyle
  2
Shaded with edges
 70
    26
177
     3
291
     0
 70
    58
 90
        2
176
     1
 90
        2
176
     1
 90
        1
176
     1
 90
        2
176
     1
 40
0.6
176
     1
 40
30.0
176
     1
 62
     7
420
 16777215
176
     1
 90
        1
176
     1
 90
        2
176
     1
 62
     7
176
     1
 62
   257
176
     1
 90
        2
176
     1
 90
        1
176
     1
 40
1.0
176
     1
 90
        8
176
     1
 62
   257
176
     1
 40
1.0
176
     1
 90
        1
176
     1
 90
        6
176
     1
 90
        2
176
     1
 62
     7
176
     1
 90
        3
176
     1
 90
        0
176
     1
 90
        0
176
     1
290
     0
176
     1
 90
        5
176
     1
 40
0.0
176
     1
 90
        0
176
     1
290
     0
176
     1
290
     1
176
     1
290
     1
176
     1
290
     0
176
     1
290
     0
176
     1
290
     0
176
     1
290
     0
176
     1
290
     0
176
     1
290
     0
176
     1
 90
       50
176
     1
 40
0.0
176
     1
 40
1.0
176
     1
 90
        0
176
     1
 62
    18
420
        0
176
     1
 90
       50
176
     1
 90
        3
176
     1
 62
     5
420
      255
176
     1
290
     0
176
     1
 90
       50
176
     1
 90
       50
176
     1
 90
       50
176
     1
290
     0
176
     1
 90
       50
176
     1
 62
   256
176
     0
 40
1.0
176
     0
 90
        2
176
     1
  1
strokes_ogs.tif
176
     1
290
     0
176
     1
 40
1.0
176
     1
 40
1.0
176
     1
  0
VISUALSTYLE
  5
3A
102
{ACAD_REACTORS
330
29
102
}
330
29
100
AcDbVisualStyle
  2
Shades of Gray
 70
    23
177
     3
291
     0
 70
    58
 90
        2
176
     1
 90
        2
176
     1
 90
        3
176
     1
 90
        0
176
     1
 40
0.6
176
     1
 40
30.0
176
     1
 62
     7
420
 16777215
176
     1
 90
        2
176
     1
 90
        2
176
     1
 62
     7
176
     1
 62
     7
176
     1
 90
        1
176
     1
 90
        1
176
     1
 40
40.0
176
     1
 90
        8
176
     1
 62
     7
176
     1
 40
1.0
176
     1
 90
        1
176
     1
 90
        6
176
     1
 90
        2
176
     1
 62
     7
176
     1
 90
        3
176
     1
 90
        0
176
     1
 90
        0
176
     1
290
     0
176
     1
 90
        1
176
     1
 40
0.0
176
     1
 90
        0
176
     1
290
     0
176
     1
290
     1
176
     1
290
     1
176
     1
290
     0
176
     1
290
     0
176
     1
290
     0
176
     1
290
     0
176
     1
290
     0
176
     1
290
     0
176
     1
 90
       50
176
     1
 40
0.0
176
     1
 40
1.0
176
     1
 90
        0
176
     1
 62
    18
420
        0
176
     1
 90
       50
176
     1
 90
        3
176
     1
 62
     5
420
      255
176
     1
290
     0
176
     1
 90
       50
176
     1
 90
       50
176
     1
 90
       50
176
     1
290
     0
176
     1
 90
       50
176
     1
 62
   256
176
     0
 40
1.0
176
     0
 90
        2
176
     1
  1
strokes_ogs.tif
176
     1
290
     0
176
     1
 40
1.0
176
     1
 40
1.0
176
     1
  0
VISUALSTYLE
  5
3B
102
{ACAD_REACTORS
330
29
102
}
330
29
100
AcDbVisualStyle
  2
Sketchy
 70
    24
177
     3
291
     0
 70
    58
 90
        1
176
     1
 90
        2
176
     1
 90
        2
176
     1
 90
        0
176
     1
 40
0.6
176
     1
 40
30.0
176
     1
 62
     7
420
 16777215
176
     1
 90
        2
176
     1
 90
        2
176
     1
 62
     7
176
     1
 62
     7
176
     1
 90
        1
176
     1
 90
        1
176
     1
 40
40.0
176
     1
 90
       11
176
     1
 62
     7
176
     1
 40
1.0
176
     1
 90
        1
176
     1
 90
        6
176
     1
 90
        2
176
     1
 62
     7
176
     1
 90
        6
176
     1
 90
        0
176
     1
 90
        0
176
     1
290
     0
176
     1
 90
        1
176
     1
 40
0.0
176
     1
 90
        0
176
     1
290
     0
176
     1
290
     1
176
     1
290
     1
176
     1
290
     0
176
     1
290
     0
176
     1
290
     0
176
     1
290
     0
176
     1
290
     0
176
     1
290
     0
176
     1
 90
       50
176
     1
 40
0.0
176
     1
 40
1.0
176
     1
 90
        0
176
     1
 62
    18
420
        0
176
     1
 90
       50
176
     1
 90
        3
176
     1
 62
     5
420
      255
176
     1
290
     0
176
     1
 90
       50
176
     1
 90
       50
176
     1
 90
       50
176
     1
290
     0
176
     1
 90
       50
176
     1
 62
   256
176
     0
 40
1.0
176
     0
 90
        2
176
     1
  1
strokes_ogs.tif
176
     1
290
     0
176
     1
 40
1.0
176
     1
 40
1.0
176
     1
  0
VISUALSTYLE
  5
36
102
{ACAD_REACTORS
330
29
102
}
330
29
100
AcDbVisualStyle
  2
Thicken
 70
    13
177
     3
291
     1
 70
    58
 90
        2
176
     1
 90
        2
176
     1
 90
        0
176
     1
 90
        0
176
     1
 40
0.6
176
     1
 40
30.0
176
     1
 62
     7
420
 16777215
176
     1
 90
        1
176
     1
 90
        4
176
     1
 62
     7
176
     1
 62
   257
176
     1
 90
        1
176
     1
 90
        1
176
     1
 40
1.0
176
     1
 90
       12
176
     1
 62
     7
176
     1
 40
1.0
176
     1
 90
        1
176
     1
 90
        6
176
     1
 90
        2
176
     1
 62
     7
176
     1
 90
        5
176
     1
 90
        0
176
     1
 90
        0
176
     1
290
     0
176
     1
 90
        1
176
     1
 40
0.0
176
     1
 90
        0
176
     1
290
     0
176
     1
290
     1
176
     1
290
     1
176
     1
290
     0
176
     1
290
     0
176
     1
290
     0
176
     1
290
     0
176
     1
290
     0
176
     1
290
     0
176
     1
 90
       50
176
     1
 40
0.0
176
     1
 40
1.0
176
     1
 90
        0
176
     1
 62
    18
420
        0
176
     1
 90
       50
176
     1
 90
        3
176
     1
 62
     5
420
      255
176
     1
290
     0
176
     1
 90
       50
176
     1
 90
       50
176
     1
 90
       50
176
     1
290
     0
176
     1
 90
       50
176
     1
 62
   256
176
     0
 40
1.0
176
     0
 90
        2
176
     1
  1
strokes_ogs.tif
176
     1
290
     0
176
     1
 40
1.0
176
     1
 40
1.0
176
     1
  0
VISUALSTYLE
  5
30
102
{ACAD_REACTORS
330
29
102
}
330
29
100
AcDbVisualStyle
  2
Wireframe
 70
     5
177
     3
291
     0
 70
    58
 90
        0
176
     1
 90
        2
176
     1
 90
        0
176
     1
 90
        0
176
     1
 40
0.6
176
     1
 40
30.0
176
     1
 62
     7
420
 16777215
176
     1
 90
        1
176
     1
 90
        4
176
     1
 62
     7
176
     1
 62
   257
176
     1
 90
        1
176
     1
 90
        1
176
     1
 40
1.0
176
     1
 90
        0
176
     1
 62
   257
176
     1
 40
1.0
176
     1
 90
        1
176
     1
 90
        6
176
     1
 90
        2
176
     1
 62
     7
176
     1
 90
        3
176
     1
 90
        0
176
     1
 90
        0
176
     1
290
     0
176
     1
 90
        1
176
     1
 40
0.0
176
     1
 90
        0
176
     1
290
     0
176
     1
290
     1
176
     1
290
     1
176
     1
290
     0
176
     1
290
     0
176
     1
290
     0
176
     1
290
     0
176
     1
290
     0
176
     1
290
     0
176
     1
 90
       50
176
     1
 40
0.0
176
     1
 40
1.0
176
     1
 90
        0
176
     1
 62
    18
420
        0
176
     1
 90
       50
176
     1
 90
        3
176
     1
 62
     5
420
      255
176
     1
290
     0
176
     1
 90
       50
176
     1
 90
       50
176
     1
 90
       50
176
     1
290
     0
176
     1
 90
       50
176
     1
 62
   256
176
     0
 40
1.0
176
     0
 90
        2
176
     1
  1
strokes_ogs.tif
176
     1
290
     0
176
     1
 40
1.0
176
     1
 40
1.0
176
     1
  0
VISUALSTYLE
  5
3C
102
{ACAD_REACTORS
330
29
102
}
330
29
100
AcDbVisualStyle
  2
X-Ray
 70
    25
177
     3
291
     0
 70
    58
 90
        2
176
     1
 90
        2
176
     1
 90
        1
176
     1
 90
        1
176
     1
 40
0.5
176
     1
 40
30.0
176
     1
 62
     7
420
 16777215
176
     1
 90
        1
176
     1
 90
        0
176
     1
 62
     7
176
     1
 62
   257
176
     1
 90
        1
176
     1
 90
        1
176
     1
 40
1.0
176
     1
 90
        8
176
     1
 62
     7
176
     1
 40
1.0
176
     1
 90
        1
176
     1
 90
        6
176
     1
 90
        2
176
     1
 62
     7
176
     1
 90
        3
176
     1
 90
        0
176
     1
 90
        0
176
     1
290
     0
176
     1
 90
       13
176
     1
 40
0.0
176
     1
 90
        0
176
     1
290
     0
176
     1
290
     1
176
     1
290
     1
176
     1
290
     0
176
     1
290
     0
176
     1
290
     0
176
     1
290
     0
176
     1
290
     0
176
     1
290
     0
176
     1
 90
       50
176
     1
 40
0.0
176
     1
 40
1.0
176
     1
 90
        0
176
     1
 62
    18
420
        0
176
     1
 90
       50
176
     1
 90
        3
176
     1
 62
     5
420
      255
176
     1
290
     0
176
     1
 90
       50
176
     1
 90
       50
176
     1
 90
       50
176
     1
290
     0
176
     1
 90
       50
176
     1
 62
   256
176
     0
 40
1.0
176
     0
 90
        2
176
     1
  1
strokes_ogs.tif
176
     1
290
     0
176
     1
 40
1.0
176
     1
 40
1.0
176
     1
  0
DICTIONARYVAR
  5
9B
102
{ACAD_REACTORS
330
96
102
}
330
96
100
DictionaryVariables
280
     0
  1
1:1
  0
DICTIONARYVAR
  5
98
102
{ACAD_REACTORS
330
96
102
}
330
96
100
DictionaryVariables
280
     0
  1
STANDARD
  0
DICTIONARYVAR
  5
97
102
{ACAD_REACTORS
330
96
102
}
330
96
100
DictionaryVariables
280
     0
  1
STANDARD
  0
DICTIONARYVAR
  5
99
102
{ACAD_REACTORS
330
96
102
}
330
96
100
DictionaryVariables
280
     0
  1
Imperial24
  0
DICTIONARYVAR
  5
9A
102
{ACAD_REACTORS
330
96
102
}
330
96
100
DictionaryVariables
280
     0
  1
Imperial24
  0
DICTIONARY
  5
1A
330
19
100
AcDbDictionary
280
     1
281
     1
  3
BUMPTILE
360
1C
  3
DIFFUSETILE
360
1B
  3
OPACITYTILE
360
1F
  3
REFLECTIONTILE
360
1E
  3
REFRACTIONTILE
360
20
  3
SPECULARTILE
360
1D
  0
DICTIONARY
  5
12
330
11
100
AcDbDictionary
280
     1
281
     1
  3
BUMPTILE
360
14
  3
DIFFUSETILE
360
13
  3
OPACITYTILE
360
17
  3
REFLECTIONTILE
360
16
  3
REFRACTIONTILE
360
18
  3
SPECULARTILE
360
15
  0
DICTIONARY
  5
22
330
21
100
AcDbDictionary
280
     1
281
     1
  3
BUMPTILE
360
24
  3
DIFFUSETILE
360
23
  3
OPACITYTILE
360
27
  3
REFLECTIONTILE
360
26
  3
REFRACTIONTILE
360
28
  3
SPECULARTILE
360
25
  0
DICTIONARY
  5
9C
330
65
100
AcDbDictionary
280
     1
281
     1
  3
ACAD_ROUNDTRIP_2008_TABLESTYLE_CELLSTYLEMAP
360
9D
  0
XRECORD
  5
1C
102
{ACAD_REACTORS
330
1A
102
}
330
1A
100
AcDbXrecord
280
     1
270
     1
271
     1
  0
XRECORD
  5
1B
102
{ACAD_REACTORS
330
1A
102
}
330
1A
100
AcDbXrecord
280
     1
270
     1
271
     1
  0
XRECORD
  5
1F
102
{ACAD_REACTORS
330
1A
102
}
330
1A
100
AcDbXrecord
280
     1
270
     1
271
     1
  0
XRECORD
  5
1E
102
{ACAD_REACTORS
330
1A
102
}
330
1A
100
AcDbXrecord
280
     1
270
     1
271
     1
  0
XRECORD
  5
20
102
{ACAD_REACTORS
330
1A
102
}
330
1A
100
AcDbXrecord
280
     1
270
     1
271
     1
  0
XRECORD
  5
1D
102
{ACAD_REACTORS
330
1A
102
}
330
1A
100
AcDbXrecord
280
     1
270
     1
271
     1
  0
XRECORD
  5
14
102
{ACAD_REACTORS
330
12
102
}
330
12
100
AcDbXrecord
280
     1
270
     1
271
     1
  0
XRECORD
  5
13
102
{ACAD_REACTORS
330
12
102
}
330
12
100
AcDbXrecord
280
     1
270
     1
271
     1
  0
XRECORD
  5
17
102
{ACAD_REACTORS
330
12
102
}
330
12
100
AcDbXrecord
280
     1
270
     1
271
     1
  0
XRECORD
  5
16
102
{ACAD_REACTORS
330
12
102
}
330
12
100
AcDbXrecord
280
     1
270
     1
271
     1
  0
XRECORD
  5
18
102
{ACAD_REACTORS
330
12
102
}
330
12
100
AcDbXrecord
280
     1
270
     1
271
     1
  0
XRECORD
  5
15
102
{ACAD_REACTORS
330
12
102
}
330
12
100
AcDbXrecord
280
     1
270
     1
271
     1
  0
XRECORD
  5
24
102
{ACAD_REACTORS
330
22
102
}
330
22
100
AcDbXrecord
280
     1
270
     1
271
     1
  0
XRECORD
  5
23
102
{ACAD_REACTORS
330
22
102
}
330
22
100
AcDbXrecord
280
     1
270
     1
271
     1
  0
XRECORD
  5
27
102
{ACAD_REACTORS
330
22
102
}
330
22
100
AcDbXrecord
280
     1
270
     1
271
     1
  0
XRECORD
  5
26
102
{ACAD_REACTORS
330
22
102
}
330
22
100
AcDbXrecord
280
     1
270
     1
271
     1
  0
XRECORD
  5
28
102
{ACAD_REACTORS
330
22
102
}
330
22
100
AcDbXrecord
280
     1
270
     1
271
     1
  0
XRECORD
  5
25
102
{ACAD_REACTORS
330
22
102
}
330
22
100
AcDbXrecord
280
     1
270
     1
271
     1
  0
CELLSTYLEMAP
  5
9D
102
{ACAD_REACTORS
330
9C
102
}
330
9C
100
AcDbCellStyleMap
 90
        3
300
CELLSTYLE
  1
TABLEFORMAT_BEGIN
 90
        5
170
     1
 91
        0
 92
    32768
 62
   257
 93
        1
300
CONTENTFORMAT
  1
CONTENTFORMAT_BEGIN
 90
        0
 91
        0
 92
      512
 93
        0
300

 40
0.0
140
1.0
 94
        5
 62
     0
340
55
144
0.25
309
CONTENTFORMAT_END
171
     0
 94
        0
309
TABLEFORMAT_END
  1
CELLSTYLE_BEGIN
 90
        1
 91
        1
300
_TITLE
309
CELLSTYLE_END
300
CELLSTYLE
  1
TABLEFORMAT_BEGIN
 90
        5
170
     1
 91
        0
 92
        0
 62
   257
 93
        1
300
CONTENTFORMAT
  1
CONTENTFORMAT_BEGIN
 90
        0
 91
        0
 92
      512
 93
        0
300

 40
0.0
140
1.0
 94
        5
 62
     0
340
55
144
0.18
309
CONTENTFORMAT_END
171
     0
 94
        0
309
TABLEFORMAT_END
  1
CELLSTYLE_BEGIN
 90
        2
 91
        1
300
_HEADER
309
CELLSTYLE_END
300
CELLSTYLE
  1
TABLEFORMAT_BEGIN
 90
        5
170
     1
 91
        0
 92
        0
 62
   257
 93
        1
300
CONTENTFORMAT
  1
CONTENTFORMAT_BEGIN
 90
        0
 91
        0
 92
      512
 93
        0
300

 40
0.0
140
1.0
 94
        2
 62
     0
340
55
144
0.18
309
CONTENTFORMAT_END
171
     0
 94
        0
309
TABLEFORMAT_END
  1
CELLSTYLE_BEGIN
 90
        3
 91
        2
300
_DATA
309
CELLSTYLE_END
  0
ENDSEC
  0
EOF
